000000 4d 54 68 64 00 00 00 06 00 00 00 01 00 5a 4d 54  >MThd.........ZMT<
000010 72 6b 00 00 2d 96 00 ff 51 03 0e 4e 1c 00 ff 01  >rk..-...Q..N....<
000020 26 43 6f 6e 76 65 72 74 65 64 20 66 72 6f 6d 20  >&Converted from <
000030 69 6d 70 64 72 65 61 6d 2e 63 6d 66 20 62 79 20  >impdream.cmf by <
000040 43 4d 46 32 4d 49 44 00 b0 67 00 00 69 00 00 c0  >CMF2MID..g..i...<
000050 00 00 b1 69 00 00 c1 00 00 b2 69 00 00 c2 00 00  >...i......i.....<
000060 b3 69 00 00 c3 00 00 b4 69 00 00 c4 00 00 b5 69  >.i......i......i<
000070 00 00 c5 00 00 b6 69 00 00 c6 00 00 b7 69 00 00  >......i......i..<
000080 c7 00 00 b8 69 00 00 c8 00 00 90 4f 52 00 91 4c  >....i......OR..L<
000090 52 00 92 4a 52 00 95 43 39 00 96 40 39 00 97 3e  >R..JR..C9..@9..><
0000a0 39 81 40 90 4f 00 00 91 4c 00 00 92 4a 00 00 95  >9.@.O...L...J...<
0000b0 43 00 00 96 40 00 00 97 3e 00 00 90 4f 52 00 91  >C...@...>...OR..<
0000c0 4c 52 00 92 48 52 00 95 43 39 00 96 40 39 00 97  >LR..HR..C9..@9..<
0000d0 3c 39 81 40 90 4f 00 00 91 4c 00 00 92 48 00 00  ><9.@.O...L...H..<
0000e0 95 43 00 00 96 40 00 00 97 3c 00 00 90 4f 52 00  >.C...@...<...OR.<
0000f0 91 4c 52 00 92 4a 52 00 95 43 39 00 96 40 39 00  >.LR..JR..C9..@9.<
000100 97 3e 39 81 40 90 4f 00 00 91 4c 00 00 92 4a 00  >.>9.@.O...L...J.<
000110 00 95 43 00 00 96 40 00 00 97 3e 00 00 90 4f 52  >..C...@...>...OR<
000120 00 91 4c 52 00 92 48 52 00 95 43 39 00 96 40 39  >..LR..HR..C9..@9<
000130 00 97 3c 39 81 40 90 4f 00 00 91 4c 00 00 92 48  >..<9.@.O...L...H<
000140 00 00 95 43 00 00 96 40 00 00 97 3c 00 00 90 4f  >...C...@...<...O<
000150 52 00 91 4c 52 00 92 4a 52 00 95 24 39 20 24 00  >R..LR..JR..$9 $.<
000160 00 2b 39 20 2b 00 00 34 39 20 34 00 00 34 39 20  >.+9 +..49 4..49 <
000170 34 00 00 37 39 20 37 00 00 3c 39 20 90 4f 00 00  >4..79 7..<9 .O..<
000180 91 4c 00 00 92 4a 00 00 95 3c 00 00 90 4f 52 00  >.L...J...<...OR.<
000190 91 4c 52 00 92 48 52 00 95 40 39 20 40 00 00 3c  >.LR..HR..@9 @..<<
0001a0 39 20 3c 00 00 37 39 20 37 00 00 34 39 20 34 00  >9 <..79 7..49 4.<
0001b0 00 30 39 20 30 00 00 2b 39 20 90 4f 00 00 91 4c  >.09 0..+9 .O...L<
0001c0 00 00 92 48 00 00 95 2b 00 00 90 4f 52 00 91 4c  >...H...+...OR..L<
0001d0 52 00 92 4a 52 00 95 24 39 20 24 00 00 2b 39 20  >R..JR..$9 $..+9 <
0001e0 2b 00 00 34 39 20 34 00 00 34 39 20 34 00 00 37  >+..49 4..49 4..7<
0001f0 39 20 37 00 00 3c 39 20 90 4f 00 00 91 4c 00 00  >9 7..<9 .O...L..<
000200 92 4a 00 00 95 3c 00 00 90 4f 52 00 91 4c 52 00  >.J...<...OR..LR.<
000210 92 48 52 00 95 40 39 20 40 00 00 3c 39 20 3c 00  >.HR..@9 @..<9 <.<
000220 00 37 39 20 37 00 00 34 39 20 34 00 00 30 39 20  >.79 7..49 4..09 <
000230 90 4f 00 00 91 4c 00 00 92 48 00 00 95 30 00 00  >.O...L...H...0..<
000240 90 40 52 00 95 2b 39 20 90 40 00 00 95 2b 00 00  >.@R..+9 .@...+..<
000250 90 43 52 00 95 24 39 20 24 00 00 2b 39 20 2b 00  >.CR..$9 $..+9 +.<
000260 00 34 39 20 34 00 00 34 39 20 34 00 00 37 39 20  >.49 4..49 4..79 <
000270 37 00 00 3c 39 20 3c 00 00 40 39 20 90 43 00 00  >7..<9 <..@9 .C..<
000280 95 40 00 00 90 40 52 00 95 3c 39 20 90 40 00 00  >.@...@R..<9 .@..<
000290 95 3c 00 00 90 41 52 00 95 37 39 20 90 41 00 00  >.<...AR..79 .A..<
0002a0 95 37 00 00 90 43 52 00 95 34 39 20 90 43 00 00  >.7...CR..49 .C..<
0002b0 95 34 00 00 90 41 52 00 95 30 39 20 90 41 00 00  >.4...AR..09 .A..<
0002c0 95 30 00 00 90 40 52 00 95 2b 39 20 90 40 00 00  >.0...@R..+9 .@..<
0002d0 95 2b 00 00 90 43 52 00 95 24 39 20 24 00 00 2b  >.+...CR..$9 $..+<
0002e0 39 20 2b 00 00 34 39 20 34 00 00 34 39 20 34 00  >9 +..49 4..49 4.<
0002f0 00 37 39 20 37 00 00 3c 39 20 3c 00 00 40 39 20  >.79 7..<9 <..@9 <
000300 40 00 00 3c 39 20 3c 00 00 37 39 20 37 00 00 34  >@..<9 <..79 7..4<
000310 39 20 34 00 00 30 39 20 90 43 00 00 95 30 00 00  >9 4..09 .C...0..<
000320 90 43 52 00 95 2b 39 20 90 43 00 00 95 2b 00 00  >.CR..+9 .C...+..<
000330 90 45 52 00 95 24 39 20 24 00 00 2d 39 20 2d 00  >.ER..$9 $..-9 -.<
000340 00 30 39 20 30 00 00 35 39 20 35 00 00 39 39 20  >.09 0..59 5..99 <
000350 39 00 00 3c 39 20 3c 00 00 41 39 20 90 45 00 00  >9..<9 <..A9 .E..<
000360 95 41 00 00 90 41 52 00 95 3c 39 20 90 41 00 00  >.A...AR..<9 .A..<
000370 95 3c 00 00 90 43 52 00 95 39 39 20 90 43 00 00  >.<...CR..99 .C..<
000380 95 39 00 00 90 45 52 00 95 35 39 20 90 45 00 00  >.9...ER..59 .E..<
000390 95 35 00 00 90 43 52 00 95 30 39 20 90 43 00 00  >.5...CR..09 .C..<
0003a0 95 30 00 00 90 41 52 00 95 2d 39 20 90 41 00 00  >.0...AR..-9 .A..<
0003b0 95 2d 00 00 90 45 52 00 95 24 39 20 24 00 00 2d  >.-...ER..$9 $..-<
0003c0 39 20 2d 00 00 30 39 20 30 00 00 35 39 20 35 00  >9 -..09 0..59 5.<
0003d0 00 39 39 20 39 00 00 3c 39 20 3c 00 00 41 39 20  >.99 9..<9 <..A9 <
0003e0 41 00 00 3c 39 20 3c 00 00 39 39 20 39 00 00 35  >A..<9 <..99 9..5<
0003f0 39 20 35 00 00 30 39 20 90 45 00 00 95 30 00 00  >9 5..09 .E...0..<
000400 90 45 52 00 95 2d 39 20 90 45 00 00 95 2d 00 00  >.ER..-9 .E...-..<
000410 90 47 52 00 95 28 39 20 28 00 00 2f 39 20 2f 00  >.GR..(9 (../9 /.<
000420 00 37 39 20 37 00 00 34 39 20 34 00 00 37 39 20  >.79 7..49 4..79 <
000430 37 00 00 3b 39 20 3b 00 00 40 39 20 90 47 00 00  >7..;9 ;..@9 .G..<
000440 95 40 00 00 90 40 52 00 95 3b 39 20 90 40 00 00  >.@...@R..;9 .@..<
000450 95 3b 00 00 90 41 52 00 95 37 39 20 90 41 00 00  >.;...AR..79 .A..<
000460 95 37 00 00 90 43 52 00 95 34 39 20 90 43 00 00  >.7...CR..49 .C..<
000470 95 34 00 00 90 45 52 00 95 2f 39 20 90 45 00 00  >.4...ER../9 .E..<
000480 95 2f 00 00 90 47 52 00 95 28 39 20 90 47 00 00  >./...GR..(9 .G..<
000490 95 28 00 00 90 48 52 00 95 29 39 20 29 00 00 30  >.(...HR..)9 )..0<
0004a0 39 20 30 00 00 39 39 20 90 48 00 00 95 39 00 00  >9 0..99 .H...9..<
0004b0 90 41 52 00 95 39 39 20 39 00 00 35 39 20 35 00  >.AR..99 9..59 5.<
0004c0 00 3c 39 20 3c 00 00 41 39 20 41 00 00 3c 39 20  >.<9 <..A9 A..<9 <
0004d0 3c 00 00 39 39 20 39 00 00 35 39 20 35 00 00 30  ><..99 9..59 5..0<
0004e0 39 20 90 41 00 00 95 30 00 00 90 43 52 00 95 29  >9 .A...0...CR..)<
0004f0 39 20 90 43 00 00 95 29 00 00 90 45 52 00 95 26  >9 .C...)...ER..&<
000500 39 20 26 00 00 2d 39 20 2d 00 00 35 39 20 35 00  >9 &..-9 -..59 5.<
000510 00 35 39 20 35 00 00 32 39 20 32 00 00 39 39 20  >.59 5..29 2..99 <
000520 39 00 00 3e 39 20 90 45 00 00 95 3e 00 00 90 3e  >9..>9 .E...>...><
000530 52 00 95 39 39 20 90 3e 00 00 95 39 00 00 90 40  >R..99 .>...9...@<
000540 52 00 95 35 39 20 90 40 00 00 95 35 00 00 90 41  >R..59 .@...5...A<
000550 52 00 95 32 39 20 90 41 00 00 95 32 00 00 90 43  >R..29 .A...2...C<
000560 52 00 95 2d 39 20 90 43 00 00 95 2d 00 00 90 45  >R..-9 .C...-...E<
000570 52 00 95 26 39 20 90 45 00 00 95 26 00 00 90 47  >R..&9 .E...&...G<
000580 52 00 95 2b 39 20 2b 00 00 32 39 20 32 00 00 3b  >R..+9 +..29 2..;<
000590 39 20 3b 00 00 3b 39 20 3b 00 00 37 39 20 37 00  >9 ;..;9 ;..79 7.<
0005a0 00 3e 39 20 3e 00 00 43 39 20 43 00 00 3e 39 20  >.>9 >..C9 C..>9 <
0005b0 3e 00 00 3b 39 20 3b 00 00 37 39 20 37 00 00 32  >>..;9 ;..79 7..2<
0005c0 39 20 90 47 00 00 95 32 00 00 90 4c 52 00 91 40  >9 .G...2...LR..@<
0005d0 52 00 95 2b 39 20 91 40 00 00 95 2b 00 00 91 43  >R..+9 .@...+...C<
0005e0 52 00 95 24 39 08 92 4a 52 08 90 4c 00 00 4f 52  >R..$9..JR..L..OR<
0005f0 10 95 24 00 00 2b 39 20 2b 00 00 34 39 20 92 4a  >..$..+9 +..49 .J<
000600 00 00 95 34 00 00 92 48 52 00 95 34 39 20 34 00  >...4...HR..49 4.<
000610 00 37 39 20 37 00 00 3c 39 20 92 48 00 00 95 3c  >.79 7..<9 .H...<<
000620 00 00 92 47 52 00 95 40 39 20 91 43 00 00 90 4f  >...GR..@9 .C...O<
000630 00 00 95 40 00 00 90 4c 52 00 91 40 52 00 95 3c  >...@...LR..@R..<<
000640 39 20 90 4c 00 00 91 40 00 00 95 3c 00 00 90 4d  >9 .L...@...<...M<
000650 52 00 91 41 52 00 95 37 39 20 92 47 00 00 90 4d  >R..AR..79 .G...M<
000660 00 00 91 41 00 00 95 37 00 00 90 4f 52 00 91 43  >...A...7...OR..C<
000670 52 00 92 45 52 00 95 34 39 20 90 4f 00 00 91 43  >R..ER..49 .O...C<
000680 00 00 95 34 00 00 90 4d 52 00 91 41 52 00 95 30  >...4...MR..AR..0<
000690 39 20 90 4d 00 00 91 41 00 00 95 30 00 00 90 4c  >9 .M...A...0...L<
0006a0 52 00 91 40 52 00 95 2b 39 20 91 40 00 00 95 2b  >R..@R..+9 .@...+<
0006b0 00 00 91 43 52 00 95 24 39 08 92 45 00 00 4a 52  >...CR..$9..E..JR<
0006c0 08 90 4c 00 00 4f 52 10 95 24 00 00 2b 39 20 2b  >..L..OR..$..+9 +<
0006d0 00 00 34 39 20 92 4a 00 00 95 34 00 00 92 48 52  >..49 .J...4...HR<
0006e0 00 95 34 39 20 34 00 00 37 39 20 37 00 00 3c 39  >..49 4..79 7..<9<
0006f0 20 92 48 00 00 95 3c 00 00 92 47 52 00 95 40 39  > .H...<...GR..@9<
000700 20 40 00 00 3c 39 20 3c 00 00 37 39 20 92 47 00  > @..<9 <..79 .G.<
000710 00 95 37 00 00 92 45 52 00 95 34 39 20 34 00 00  >..7...ER..49 4..<
000720 30 39 20 91 43 00 00 90 4f 00 00 95 30 00 00 90  >09 .C...O...0...<
000730 4f 52 00 91 43 52 00 95 2b 39 20 91 43 00 00 95  >OR..CR..+9 .C...<
000740 2b 00 00 91 45 52 00 95 24 39 08 92 45 00 00 4f  >+...ER..$9..E..O<
000750 52 08 90 4f 00 00 51 52 10 95 24 00 00 2d 39 20  >R..O..QR..$..-9 <
000760 2d 00 00 30 39 20 92 4f 00 00 95 30 00 00 92 4d  >-..09 .O...0...M<
000770 52 00 95 35 39 20 35 00 00 39 39 20 39 00 00 3c  >R..59 5..99 9..<<
000780 39 20 92 4d 00 00 95 3c 00 00 92 4c 52 00 95 41  >9 .M...<...LR..A<
000790 39 20 91 45 00 00 90 51 00 00 95 41 00 00 90 4d  >9 .E...Q...A...M<
0007a0 52 00 91 41 52 00 95 3c 39 20 90 4d 00 00 91 41  >R..AR..<9 .M...A<
0007b0 00 00 95 3c 00 00 90 4f 52 00 91 43 52 00 95 39  >...<...OR..CR..9<
0007c0 39 20 92 4c 00 00 90 4f 00 00 91 43 00 00 95 39  >9 .L...O...C...9<
0007d0 00 00 90 51 52 00 91 45 52 00 92 4a 52 00 95 35  >...QR..ER..JR..5<
0007e0 39 20 90 51 00 00 91 45 00 00 95 35 00 00 90 4f  >9 .Q...E...5...O<
0007f0 52 00 91 43 52 00 95 30 39 20 90 4f 00 00 91 43  >R..CR..09 .O...C<
000800 00 00 95 30 00 00 90 4d 52 00 91 41 52 00 95 2d  >...0...MR..AR..-<
000810 39 20 91 41 00 00 95 2d 00 00 91 45 52 00 95 24  >9 .A...-...ER..$<
000820 39 08 92 4a 00 00 4f 52 08 90 4d 00 00 51 52 10  >9..J..OR..M..QR.<
000830 95 24 00 00 2d 39 20 2d 00 00 30 39 20 92 4f 00  >.$..-9 -..09 .O.<
000840 00 95 30 00 00 92 4d 52 00 95 35 39 20 35 00 00  >..0...MR..59 5..<
000850 39 39 20 39 00 00 3c 39 20 92 4d 00 00 95 3c 00  >99 9..<9 .M...<.<
000860 00 92 4c 52 00 95 41 39 20 41 00 00 3c 39 20 3c  >..LR..A9 A..<9 <<
000870 00 00 39 39 20 92 4c 00 00 95 39 00 00 92 4a 52  >..99 .L...9...JR<
000880 00 95 35 39 20 35 00 00 30 39 20 91 45 00 00 90  >..59 5..09 .E...<
000890 51 00 00 95 30 00 00 90 51 52 00 91 45 52 00 95  >Q...0...QR..ER..<
0008a0 2d 39 20 91 45 00 00 95 2d 00 00 93 47 52 00 95  >-9 .E...-...GR..<
0008b0 28 39 08 92 4a 00 00 91 4f 52 00 92 4c 52 08 90  >(9..J...OR..LR..<
0008c0 51 00 00 53 52 10 95 28 00 00 2f 39 20 2f 00 00  >Q..SR..(../9 /..<
0008d0 37 39 20 37 00 00 34 39 20 34 00 00 37 39 20 37  >79 7..49 4..79 7<
0008e0 00 00 3b 39 20 3b 00 00 40 39 20 93 47 00 00 91  >..;9 ;..@9 .G...<
0008f0 4f 00 00 92 4c 00 00 90 53 00 00 95 40 00 00 90  >O...L...S...@...<
000900 4c 52 00 91 40 52 00 95 3b 39 20 90 4c 00 00 91  >LR..@R..;9 .L...<
000910 40 00 00 95 3b 00 00 90 4d 52 00 91 41 52 00 95  >@...;...MR..AR..<
000920 37 39 20 90 4d 00 00 91 41 00 00 95 37 00 00 90  >79 .M...A...7...<
000930 4f 52 00 91 43 52 00 95 34 39 20 90 4f 00 00 91  >OR..CR..49 .O...<
000940 43 00 00 95 34 00 00 90 51 52 00 91 45 52 00 95  >C...4...QR..ER..<
000950 2f 39 20 90 51 00 00 91 45 00 00 95 2f 00 00 90  >/9 .Q...E.../...<
000960 53 52 00 91 47 52 00 95 28 39 20 28 00 00 93 48  >SR..GR..(9 (...H<
000970 52 00 95 29 39 08 91 47 00 00 51 52 00 92 4d 52  >R..)9..G..QR..MR<
000980 08 90 53 00 00 54 52 10 95 29 00 00 30 39 20 30  >..S..TR..)..09 0<
000990 00 00 39 39 20 93 48 00 00 91 51 00 00 92 4d 00  >..99 .H...Q...M.<
0009a0 00 90 54 00 00 95 39 00 00 90 4d 52 00 91 41 52  >..T...9...MR..AR<
0009b0 00 95 39 39 20 39 00 00 35 39 20 35 00 00 3c 39  >..99 9..59 5..<9<
0009c0 20 3c 00 00 41 39 20 41 00 00 3c 39 20 3c 00 00  > <..A9 A..<9 <..<
0009d0 39 39 20 39 00 00 35 39 20 35 00 00 30 39 20 90  >99 9..59 5..09 .<
0009e0 4d 00 00 91 41 00 00 95 30 00 00 90 4f 52 00 91  >M...A...0...OR..<
0009f0 43 52 00 95 29 39 20 29 00 00 93 45 52 00 95 26  >CR..)9 )...ER..&<
000a00 39 08 91 43 00 00 4d 52 00 92 4a 52 08 90 4f 00  >9..C..MR..JR..O.<
000a10 00 51 52 10 95 26 00 00 2d 39 20 2d 00 00 35 39  >.QR..&..-9 -..59<
000a20 20 35 00 00 35 39 20 35 00 00 32 39 20 32 00 00  > 5..59 5..29 2..<
000a30 39 39 20 39 00 00 3e 39 20 93 45 00 00 91 4d 00  >99 9..>9 .E...M.<
000a40 00 92 4a 00 00 90 51 00 00 95 3e 00 00 90 4d 52  >..J...Q...>...MR<
000a50 00 91 41 52 00 95 39 39 20 90 4d 00 00 91 41 00  >..AR..99 .M...A.<
000a60 00 95 39 00 00 90 4f 52 00 91 43 52 00 95 35 39  >..9...OR..CR..59<
000a70 20 90 4f 00 00 91 43 00 00 95 35 00 00 90 51 52  > .O...C...5...QR<
000a80 00 91 45 52 00 95 32 39 20 90 51 00 00 91 45 00  >..ER..29 .Q...E.<
000a90 00 95 32 00 00 90 53 52 00 91 47 52 00 95 2d 39  >..2...SR..GR..-9<
000aa0 20 90 53 00 00 91 47 00 00 95 2d 00 00 90 54 52  > .S...G...-...TR<
000ab0 00 91 48 52 00 95 26 39 20 90 54 00 00 91 48 00  >..HR..&9 .T...H.<
000ac0 00 95 26 00 00 90 56 52 00 91 4a 52 00 92 53 52  >..&...VR..JR..SR<
000ad0 00 93 4f 52 00 95 39 39 00 96 2b 39 20 95 39 00  >..OR..99..+9 .9.<
000ae0 00 96 2b 00 00 95 3b 39 20 3b 00 00 39 39 20 39  >..+...;9 ;..99 9<
000af0 00 00 37 39 20 37 00 00 39 39 20 39 00 00 37 39  >..79 7..99 9..79<
000b00 20 90 56 00 00 91 4a 00 00 92 53 00 00 93 4f 00  > .V...J...S...O.<
000b10 00 95 37 00 00 90 4f 52 00 91 43 52 00 95 32 39  >..7...OR..CR..29<
000b20 20 32 00 00 2b 39 20 2b 00 00 32 39 20 32 00 00  > 2..+9 +..29 2..<
000b30 3b 39 20 3b 00 00 37 39 20 37 00 00 3e 39 20 90  >;9 ;..79 7..>9 .<
000b40 4f 00 00 91 43 00 00 95 3e 00 00 90 58 52 00 91  >O...C...>...XR..<
000b50 4c 52 00 92 54 52 00 93 4f 52 00 95 24 39 10 24  >LR..TR..OR..$9.$<
000b60 00 00 2b 39 10 2b 00 00 30 39 10 30 00 00 34 39  >..+9.+..09.0..49<
000b70 10 34 00 00 37 39 10 37 00 00 3c 39 10 3c 00 00  >.4..79.7..<9.<..<
000b80 40 39 10 40 00 00 3c 39 10 3c 00 00 37 39 10 37  >@9.@..<9.<..79.7<
000b90 00 00 34 39 10 34 00 00 30 39 10 30 00 00 2b 39  >..49.4..09.0..+9<
000ba0 10 2b 00 00 24 39 40 90 58 00 00 91 4c 00 00 92  >.+..$9@.X...L...<
000bb0 54 00 00 93 4f 00 00 95 24 00 00 90 54 52 00 91  >T...O...$...TR..<
000bc0 48 52 00 95 3c 39 20 90 54 00 00 91 48 00 00 95  >HR..<9 .T...H...<
000bd0 3c 00 00 90 54 52 00 91 48 52 00 92 4f 52 00 93  ><...TR..HR..OR..<
000be0 4c 52 00 95 3c 39 00 96 37 39 00 97 34 39 20 90  >LR..<9..79..49 .<
000bf0 54 00 00 91 48 00 00 92 4f 00 00 93 4c 00 00 95  >T...H...O...L...<
000c00 3c 00 00 90 56 52 00 91 4a 52 00 95 3e 39 20 96  ><...VR..JR..>9 .<
000c10 37 00 00 97 34 00 00 90 56 00 00 91 4a 00 00 95  >7...4...V...J...<
000c20 3e 00 00 90 54 52 00 91 48 52 00 95 3c 39 20 90  >>...TR..HR..<9 .<
000c30 54 00 00 91 48 00 00 95 3c 00 00 90 58 52 00 91  >T...H...<...XR..<
000c40 4c 52 00 92 54 52 00 93 51 52 00 95 2d 39 10 2d  >LR..TR..QR..-9.-<
000c50 00 00 34 39 10 34 00 00 39 39 10 39 00 00 3c 39  >..49.4..99.9..<9<
000c60 10 3c 00 00 40 39 10 40 00 00 45 39 10 45 00 00  >.<..@9.@..E9.E..<
000c70 48 39 10 48 00 00 45 39 10 45 00 00 40 39 10 40  >H9.H..E9.E..@9.@<
000c80 00 00 3c 39 10 3c 00 00 39 39 10 39 00 00 34 39  >..<9.<..99.9..49<
000c90 10 34 00 00 2d 39 40 90 58 00 00 91 4c 00 00 92  >.4..-9@.X...L...<
000ca0 54 00 00 93 51 00 00 95 2d 00 00 90 54 52 00 91  >T...Q...-...TR..<
000cb0 48 52 00 95 3c 39 20 90 54 00 00 91 48 00 00 95  >HR..<9 .T...H...<
000cc0 3c 00 00 90 54 52 00 91 48 52 00 92 51 52 00 93  ><...TR..HR..QR..<
000cd0 4c 52 00 95 3c 39 00 96 39 39 00 97 34 39 20 90  >LR..<9..99..49 .<
000ce0 54 00 00 91 48 00 00 92 51 00 00 93 4c 00 00 95  >T...H...Q...L...<
000cf0 3c 00 00 90 56 52 00 91 4a 52 00 95 3e 39 20 96  ><...VR..JR..>9 .<
000d00 39 00 00 97 34 00 00 90 56 00 00 91 4a 00 00 95  >9...4...V...J...<
000d10 3e 00 00 90 54 52 00 91 48 52 00 95 3c 39 20 90  >>...TR..HR..<9 .<
000d20 54 00 00 91 48 00 00 95 3c 00 00 90 58 52 00 91  >T...H...<...XR..<
000d30 4c 52 00 92 53 52 00 93 4f 52 00 95 28 39 10 28  >LR..SR..OR..(9.(<
000d40 00 00 2f 39 10 2f 00 00 34 39 10 34 00 00 37 39  >../9./..49.4..79<
000d50 10 37 00 00 3b 39 10 3b 00 00 40 39 10 90 58 00  >.7..;9.;..@9..X.<
000d60 00 91 4c 00 00 92 53 00 00 93 4f 00 00 95 40 00  >..L...S...O...@.<
000d70 00 90 53 52 00 91 47 52 00 92 4f 52 00 93 4c 52  >..SR..GR..OR..LR<
000d80 00 95 43 39 10 43 00 00 40 39 10 40 00 00 3b 39  >..C9.C..@9.@..;9<
000d90 10 3b 00 00 37 39 10 37 00 00 34 39 10 34 00 00  >.;..79.7..49.4..<
000da0 2f 39 10 2f 00 00 28 39 40 90 53 00 00 91 47 00  >/9./..(9@.S...G.<
000db0 00 92 4f 00 00 93 4c 00 00 95 28 00 00 90 54 52  >..O...L...(...TR<
000dc0 00 91 48 52 00 95 3c 39 20 90 54 00 00 91 48 00  >..HR..<9 .T...H.<
000dd0 00 95 3c 00 00 90 56 52 00 91 4a 52 00 92 4f 52  >..<...VR..JR..OR<
000de0 00 93 4c 52 00 95 3e 39 00 96 37 39 00 97 34 39  >..LR..>9..79..49<
000df0 20 90 56 00 00 91 4a 00 00 92 4f 00 00 93 4c 00  > .V...J...O...L.<
000e00 00 95 3e 00 00 90 54 52 00 91 48 52 00 95 3c 39  >..>...TR..HR..<9<
000e10 20 96 37 00 00 97 34 00 00 90 54 00 00 91 48 00  > .7...4...T...H.<
000e20 00 95 3c 00 00 90 53 52 00 91 47 52 00 95 3b 39  >..<...SR..GR..;9<
000e30 20 90 53 00 00 91 47 00 00 95 3b 00 00 90 56 52  > .S...G...;...VR<
000e40 00 91 4a 52 00 92 51 52 00 93 4d 52 00 95 29 39  >..JR..QR..MR..)9<
000e50 10 29 00 00 30 39 10 30 00 00 35 39 10 35 00 00  >.)..09.0..59.5..<
000e60 39 39 10 39 00 00 3c 39 10 3c 00 00 41 39 10 41  >99.9..<9.<..A9.A<
000e70 00 00 45 39 10 45 00 00 41 39 10 41 00 00 3c 39  >..E9.E..A9.A..<9<
000e80 10 3c 00 00 39 39 10 39 00 00 35 39 10 35 00 00  >.<..99.9..59.5..<
000e90 30 39 10 30 00 00 29 39 40 90 56 00 00 91 4a 00  >09.0..)9@.V...J.<
000ea0 00 92 51 00 00 93 4d 00 00 95 29 00 00 90 51 52  >..Q...M...)...QR<
000eb0 00 91 45 52 00 95 39 39 20 90 51 00 00 91 45 00  >..ER..99 .Q...E.<
000ec0 00 95 39 00 00 90 54 52 00 91 48 52 00 92 51 52  >..9...TR..HR..QR<
000ed0 00 93 4d 52 00 95 3c 39 00 96 39 39 00 97 35 39  >..MR..<9..99..59<
000ee0 20 90 54 00 00 91 48 00 00 92 51 00 00 93 4d 00  > .T...H...Q...M.<
000ef0 00 95 3c 00 00 90 53 52 00 91 47 52 00 95 3b 39  >..<...SR..GR..;9<
000f00 20 96 39 00 00 97 35 00 00 90 53 00 00 91 47 00  > .9...5...S...G.<
000f10 00 95 3b 00 00 90 51 52 00 91 45 52 00 95 39 39  >..;...QR..ER..99<
000f20 20 90 51 00 00 91 45 00 00 95 39 00 00 90 54 52  > .Q...E...9...TR<
000f30 00 91 48 52 00 92 51 52 00 93 4c 52 00 95 2d 39  >..HR..QR..LR..-9<
000f40 10 2d 00 00 34 39 10 34 00 00 39 39 10 39 00 00  >.-..49.4..99.9..<
000f50 3c 39 10 3c 00 00 40 39 10 40 00 00 45 39 10 45  ><9.<..@9.@..E9.E<
000f60 00 00 48 39 10 48 00 00 45 39 10 45 00 00 40 39  >..H9.H..E9.E..@9<
000f70 10 40 00 00 3c 39 10 3c 00 00 39 39 10 39 00 00  >.@..<9.<..99.9..<
000f80 34 39 10 34 00 00 2d 39 20 90 54 00 00 91 48 00  >49.4..-9 .T...H.<
000f90 00 92 51 00 00 93 4c 00 00 95 2d 00 00 90 51 52  >..Q...L...-...QR<
000fa0 00 91 45 52 00 95 39 39 20 90 51 00 00 91 45 00  >..ER..99 .Q...E.<
000fb0 00 95 39 00 00 90 53 52 00 91 47 52 00 95 3b 39  >..9...SR..GR..;9<
000fc0 20 90 53 00 00 91 47 00 00 95 3b 00 00 90 54 52  > .S...G...;...TR<
000fd0 00 91 48 52 00 92 51 52 00 93 4c 52 00 95 3c 39  >..HR..QR..LR..<9<
000fe0 00 96 39 39 00 97 34 39 20 90 54 00 00 91 48 00  >..99..49 .T...H.<
000ff0 00 92 51 00 00 93 4c 00 00 95 3c 00 00 90 53 52  >..Q...L...<...SR<
001000 00 91 47 52 00 95 3b 39 20 96 39 00 00 97 34 00  >..GR..;9 .9...4.<
001010 00 90 53 00 00 91 47 00 00 95 3b 00 00 90 51 52  >..S...G...;...QR<
001020 00 91 45 52 00 95 39 39 20 90 51 00 00 91 45 00  >..ER..99 .Q...E.<
001030 00 95 39 00 00 90 54 52 00 91 48 52 00 92 50 52  >..9...TR..HR..PR<
001040 00 93 4b 52 00 95 2c 39 10 2c 00 00 33 39 10 33  >..KR..,9.,..39.3<
001050 00 00 38 39 10 38 00 00 3c 39 10 3c 00 00 3f 39  >..89.8..<9.<..?9<
001060 10 3f 00 00 44 39 10 44 00 00 48 39 10 48 00 00  >.?..D9.D..H9.H..<
001070 44 39 10 44 00 00 3f 39 10 3f 00 00 3c 39 10 3c  >D9.D..?9.?..<9.<<
001080 00 00 38 39 10 38 00 00 33 39 10 33 00 00 2c 39  >..89.8..39.3..,9<
001090 20 90 54 00 00 91 48 00 00 92 50 00 00 93 4b 00  > .T...H...P...K.<
0010a0 00 95 2c 00 00 90 54 52 00 91 48 52 00 95 3c 39  >..,...TR..HR..<9<
0010b0 20 90 54 00 00 91 48 00 00 95 3c 00 00 90 56 52  > .T...H...<...VR<
0010c0 00 91 4a 52 00 95 3e 39 20 90 56 00 00 91 4a 00  >..JR..>9 .V...J.<
0010d0 00 95 3e 00 00 90 58 52 00 91 4c 52 00 92 54 52  >..>...XR..LR..TR<
0010e0 00 93 50 52 00 95 40 39 00 96 3c 39 00 97 38 39  >..PR..@9..<9..89<
0010f0 20 90 58 00 00 91 4c 00 00 92 54 00 00 93 50 00  > .X...L...T...P.<
001100 00 95 40 00 00 90 56 52 00 91 4a 52 00 95 3e 39  >..@...VR..JR..>9<
001110 20 96 3c 00 00 97 38 00 00 90 56 00 00 91 4a 00  > .<...8...V...J.<
001120 00 95 3e 00 00 90 54 52 00 91 48 52 00 95 3c 39  >..>...TR..HR..<9<
001130 20 90 54 00 00 91 48 00 00 95 3c 00 00 90 58 52  > .T...H...<...XR<
001140 00 91 4c 52 00 92 54 52 00 93 4f 52 00 95 40 39  >..LR..TR..OR..@9<
001150 00 96 3c 39 00 97 37 39 20 90 58 00 00 91 4c 00  >..<9..79 .X...L.<
001160 00 92 54 00 00 93 4f 00 00 90 54 52 00 91 48 52  >..T...O...TR..HR<
001170 20 90 54 00 00 91 48 00 00 90 56 52 00 91 4a 52  > .T...H...VR..JR<
001180 20 95 40 00 00 96 3c 00 00 97 37 00 00 90 56 00  > .@...<...7...V.<
001190 00 91 4a 00 00 90 58 52 00 91 4c 52 00 92 54 52  >..J...XR..LR..TR<
0011a0 00 93 50 52 00 95 40 39 00 96 3c 39 00 97 38 39  >..PR..@9..<9..89<
0011b0 60 95 40 00 00 96 3c 00 00 97 38 00 00 95 40 39  >`.@...<...8...@9<
0011c0 00 96 3c 39 00 97 39 39 20 90 58 00 00 91 4c 00  >..<9..99 .X...L.<
0011d0 00 92 54 00 00 93 50 00 00 90 54 52 00 91 48 52  >..T...P...TR..HR<
0011e0 20 90 54 00 00 91 48 00 00 90 56 52 00 91 4a 52  > .T...H...VR..JR<
0011f0 20 95 40 00 00 96 3c 00 00 97 39 00 00 90 56 00  > .@...<...9...V.<
001200 00 91 4a 00 00 90 58 52 00 91 4c 52 00 92 54 52  >..J...XR..LR..TR<
001210 00 93 51 52 00 95 40 39 00 96 3c 39 00 97 39 39  >..QR..@9..<9..99<
001220 20 90 58 00 00 91 4c 00 00 92 54 00 00 93 51 00  > .X...L...T...Q.<
001230 00 95 40 00 00 90 59 52 00 91 4d 52 00 95 41 39  >..@...YR..MR..A9<
001240 20 96 3c 00 00 97 39 00 00 90 59 00 00 91 4d 00  > .<...9...Y...M.<
001250 00 95 41 00 00 90 58 52 00 91 4c 52 00 95 40 39  >..A...XR..LR..@9<
001260 20 90 58 00 00 91 4c 00 00 95 40 00 00 90 56 52  > .X...L...@...VR<
001270 00 91 4a 52 00 92 52 52 00 93 4d 52 00 95 22 39  >..JR..RR..MR.."9<
001280 10 22 00 00 29 39 10 29 00 00 2e 39 10 2e 00 00  >."..)9.)...9....<
001290 32 39 10 32 00 00 35 39 10 35 00 00 3a 39 10 3a  >29.2..59.5..:9.:<
0012a0 00 00 3e 39 10 3e 00 00 3a 39 10 3a 00 00 35 39  >..>9.>..:9.:..59<
0012b0 10 35 00 00 32 39 10 32 00 00 2e 39 10 2e 00 00  >.5..29.2...9....<
0012c0 29 39 10 29 00 00 22 39 20 22 00 00 35 39 20 35  >)9.).."9 "..59 5<
0012d0 00 00 3a 39 20 3a 00 00 41 39 00 96 3e 39 40 90  >..:9 :..A9..>9@.<
0012e0 56 00 00 91 4a 00 00 92 52 00 00 93 4d 00 00 95  >V...J...R...M...<
0012f0 41 00 00 96 3e 00 00 90 58 52 00 91 4c 52 00 95  >A...>...XR..LR..<
001300 40 39 20 90 58 00 00 91 4c 00 00 95 40 00 00 90  >@9 .X...L...@...<
001310 59 52 00 91 4d 52 00 92 56 52 00 93 51 52 00 95  >YR..MR..VR..QR..<
001320 26 39 10 26 00 00 2d 39 10 2d 00 00 32 39 10 32  >&9.&..-9.-..29.2<
001330 00 00 35 39 10 35 00 00 39 39 10 39 00 00 3e 39  >..59.5..99.9..>9<
001340 10 3e 00 00 41 39 10 41 00 00 3e 39 10 3e 00 00  >.>..A9.A..>9.>..<
001350 39 39 10 39 00 00 35 39 10 35 00 00 32 39 10 32  >99.9..59.5..29.2<
001360 00 00 2d 39 10 2d 00 00 26 39 20 90 59 00 00 91  >..-9.-..&9 .Y...<
001370 4d 00 00 92 56 00 00 93 51 00 00 95 26 00 00 90  >M...V...Q...&...<
001380 56 52 00 91 4a 52 00 95 3e 39 20 90 56 00 00 91  >VR..JR..>9 .V...<
001390 4a 00 00 95 3e 00 00 90 58 52 00 91 4c 52 00 95  >J...>...XR..LR..<
0013a0 40 39 20 90 58 00 00 91 4c 00 00 95 40 00 00 90  >@9 .X...L...@...<
0013b0 59 52 00 91 4d 52 00 92 56 52 00 93 51 52 00 95  >YR..MR..VR..QR..<
0013c0 41 39 00 96 3e 39 00 97 39 39 20 90 59 00 00 91  >A9..>9..99 .Y...<
0013d0 4d 00 00 92 56 00 00 93 51 00 00 95 41 00 00 90  >M...V...Q...A...<
0013e0 58 52 00 91 4c 52 00 95 40 39 20 96 3e 00 00 97  >XR..LR..@9 .>...<
0013f0 39 00 00 90 58 00 00 91 4c 00 00 95 40 00 00 90  >9...X...L...@...<
001400 56 52 00 91 4a 52 00 95 3e 39 20 90 56 00 00 91  >VR..JR..>9 .V...<
001410 4a 00 00 95 3e 00 00 90 59 52 00 91 4d 52 00 92  >J...>...YR..MR..<
001420 56 52 00 93 52 52 00 95 2e 39 10 2e 00 00 35 39  >VR..RR...9....59<
001430 10 35 00 00 3a 39 10 3a 00 00 3e 39 10 3e 00 00  >.5..:9.:..>9.>..<
001440 41 39 10 41 00 00 46 39 10 46 00 00 4a 39 10 4a  >A9.A..F9.F..J9.J<
001450 00 00 46 39 10 46 00 00 41 39 10 41 00 00 3e 39  >..F9.F..A9.A..>9<
001460 10 3e 00 00 3a 39 10 3a 00 00 35 39 10 35 00 00  >.>..:9.:..59.5..<
001470 2e 39 20 90 59 00 00 91 4d 00 00 92 56 00 00 93  >.9 .Y...M...V...<
001480 52 00 00 95 2e 00 00 90 58 52 00 91 4c 52 00 95  >R.......XR..LR..<
001490 40 39 20 90 58 00 00 91 4c 00 00 95 40 00 00 90  >@9 .X...L...@...<
0014a0 59 52 00 91 4d 52 00 95 41 39 20 90 59 00 00 91  >YR..MR..A9 .Y...<
0014b0 4d 00 00 95 41 00 00 90 58 52 00 91 4c 52 00 95  >M...A...XR..LR..<
0014c0 40 39 00 96 3a 39 00 97 35 39 20 90 58 00 00 91  >@9..:9..59 .X...<
0014d0 4c 00 00 95 40 00 00 90 56 52 00 91 4a 52 00 95  >L...@...VR..JR..<
0014e0 3e 39 20 96 3a 00 00 97 35 00 00 90 56 00 00 91  >>9 .:...5...V...<
0014f0 4a 00 00 95 3e 00 00 90 54 52 00 91 48 52 00 95  >J...>...TR..HR..<
001500 3c 39 20 90 54 00 00 91 48 00 00 95 3c 00 00 90  ><9 .T...H...<...<
001510 53 52 00 91 47 52 00 92 50 52 00 93 4c 52 00 95  >SR..GR..PR..LR..<
001520 28 39 10 28 00 00 2f 39 10 2f 00 00 34 39 10 34  >(9.(../9./..49.4<
001530 00 00 38 39 10 38 00 00 3b 39 10 3b 00 00 40 39  >..89.8..;9.;..@9<
001540 10 40 00 00 44 39 10 44 00 00 40 39 10 40 00 00  >.@..D9.D..@9.@..<
001550 3b 39 10 3b 00 00 38 39 10 38 00 00 34 39 10 34  >;9.;..89.8..49.4<
001560 00 00 2f 39 10 2f 00 00 28 39 20 28 00 00 34 39  >../9./..(9 (..49<
001570 20 34 00 00 3b 39 20 3b 00 00 44 39 00 96 40 39  > 4..;9 ;..D9..@9<
001580 20 90 53 00 00 91 47 00 00 92 50 00 00 93 4c 00  > .S...G...P...L.<
001590 00 95 44 00 00 90 53 52 00 91 47 52 00 95 3b 39  >..D...SR..GR..;9<
0015a0 20 96 40 00 00 90 53 00 00 91 47 00 00 95 3b 00  > .@...S...G...;.<
0015b0 00 90 54 52 00 91 48 52 00 95 3c 39 20 90 54 00  >..TR..HR..<9 .T.<
0015c0 00 91 48 00 00 95 3c 00 00 90 56 52 00 91 4a 52  >..H...<...VR..JR<
0015d0 00 92 51 52 00 93 4d 52 00 95 29 39 10 29 00 00  >..QR..MR..)9.)..<
0015e0 30 39 10 30 00 00 35 39 10 35 00 00 39 39 10 39  >09.0..59.5..99.9<
0015f0 00 00 3c 39 10 3c 00 00 41 39 10 41 00 00 45 39  >..<9.<..A9.A..E9<
001600 10 45 00 00 41 39 10 41 00 00 3c 39 10 3c 00 00  >.E..A9.A..<9.<..<
001610 39 39 10 39 00 00 35 39 10 35 00 00 30 39 10 30  >99.9..59.5..09.0<
001620 00 00 29 39 20 90 56 00 00 91 4a 00 00 92 51 00  >..)9 .V...J...Q.<
001630 00 93 4d 00 00 95 29 00 00 90 54 52 00 91 48 52  >..M...)...TR..HR<
001640 00 95 3c 39 20 90 54 00 00 91 48 00 00 95 3c 00  >..<9 .T...H...<.<
001650 00 90 53 52 00 91 47 52 00 95 3b 39 20 90 53 00  >..SR..GR..;9 .S.<
001660 00 91 47 00 00 95 3b 00 00 90 56 52 00 91 4a 52  >..G...;...VR..JR<
001670 00 95 3e 39 00 96 39 39 00 97 35 39 20 90 56 00  >..>9..99..59 .V.<
001680 00 91 4a 00 00 95 3e 00 00 90 54 52 00 91 48 52  >..J...>...TR..HR<
001690 00 95 3c 39 20 96 39 00 00 97 35 00 00 90 54 00  >..<9 .9...5...T.<
0016a0 00 91 48 00 00 95 3c 00 00 90 53 52 00 91 47 52  >..H...<...SR..GR<
0016b0 00 95 3b 39 20 90 53 00 00 91 47 00 00 95 3b 00  >..;9 .S...G...;.<
0016c0 00 90 56 52 00 91 4a 52 00 92 51 52 00 93 4e 52  >..VR..JR..QR..NR<
0016d0 00 95 23 39 10 23 00 00 2f 39 10 2f 00 00 33 39  >..#9.#../9./..39<
0016e0 10 33 00 00 36 39 10 36 00 00 39 39 10 39 00 00  >.3..69.6..99.9..<
0016f0 3c 39 10 3c 00 00 3f 39 10 3f 00 00 3c 39 10 3c  ><9.<..?9.?..<9.<<
001700 00 00 39 39 10 39 00 00 36 39 10 36 00 00 33 39  >..99.9..69.6..39<
001710 10 33 00 00 2f 39 10 2f 00 00 23 39 20 90 56 00  >.3../9./..#9 .V.<
001720 00 91 4a 00 00 92 51 00 00 93 4e 00 00 95 23 00  >..J...Q...N...#.<
001730 00 90 54 52 00 91 48 52 00 95 3c 39 20 90 54 00  >..TR..HR..<9 .T.<
001740 00 91 48 00 00 95 3c 00 00 90 56 52 00 91 4a 52  >..H...<...VR..JR<
001750 00 95 3e 39 20 90 56 00 00 91 4a 00 00 95 3e 00  >..>9 .V...J...>.<
001760 00 90 54 52 00 91 48 52 00 92 51 52 00 93 4e 52  >..TR..HR..QR..NR<
001770 00 95 3c 39 00 96 36 39 00 97 33 39 20 90 54 00  >..<9..69..39 .T.<
001780 00 91 48 00 00 92 51 00 00 93 4e 00 00 95 3c 00  >..H...Q...N...<.<
001790 00 90 53 52 00 91 47 52 00 95 3b 39 20 96 36 00  >..SR..GR..;9 .6.<
0017a0 00 97 33 00 00 90 53 00 00 91 47 00 00 95 3b 00  >..3...S...G...;.<
0017b0 00 90 51 52 00 91 45 52 00 95 39 39 20 90 51 00  >..QR..ER..99 .Q.<
0017c0 00 91 45 00 00 95 39 00 00 90 50 52 00 91 44 52  >..E...9...PR..DR<
0017d0 00 92 4d 52 00 93 48 52 00 95 29 39 10 29 00 00  >..MR..HR..)9.)..<
0017e0 30 39 10 30 00 00 35 39 10 35 00 00 38 39 10 38  >09.0..59.5..89.8<
0017f0 00 00 3c 39 10 3c 00 00 41 39 10 41 00 00 44 39  >..<9.<..A9.A..D9<
001800 10 44 00 00 41 39 10 41 00 00 3c 39 10 3c 00 00  >.D..A9.A..<9.<..<
001810 38 39 10 38 00 00 35 39 10 35 00 00 30 39 10 30  >89.8..59.5..09.0<
001820 00 00 29 39 20 29 00 00 30 39 20 30 00 00 38 39  >..)9 )..09 0..89<
001830 20 38 00 00 2c 39 20 2c 00 00 35 39 20 35 00 00  > 8..,9 ,..59 5..<
001840 3c 39 20 90 50 00 00 91 44 00 00 92 4d 00 00 93  ><9 .P...D...M...<
001850 48 00 00 95 3c 00 00 90 44 52 00 91 3c 39 00 92  >H...<...DR..<9..<
001860 41 39 00 93 3e 39 00 95 29 39 30 91 3c 00 00 92  >A9..>9..)90.<...<
001870 41 00 00 93 3e 00 00 91 3c 39 00 92 41 39 00 93  >A...>...<9..A9..<
001880 3e 39 10 91 3c 00 00 92 41 00 00 93 3e 00 00 91  >>9..<...A...>...<
001890 3c 39 00 92 41 39 00 93 3e 39 20 95 29 00 00 91  ><9..A9..>9 .)...<
0018a0 3c 00 00 92 41 00 00 93 3e 00 00 91 3c 39 00 92  ><...A...>...<9..<
0018b0 41 39 00 93 3e 39 00 95 38 39 20 91 3c 00 00 92  >A9..>9..89 .<...<
0018c0 41 00 00 93 3e 00 00 91 3c 39 00 92 41 39 00 93  >A...>...<9..A9..<
0018d0 3e 39 20 91 3c 00 00 92 41 00 00 93 3e 00 00 91  >>9 .<...A...>...<
0018e0 3c 39 00 92 41 39 00 93 3e 39 20 95 38 00 00 91  ><9..A9..>9 .8...<
0018f0 3c 00 00 92 41 00 00 93 3e 00 00 91 3b 39 00 92  ><...A...>...;9..<
001900 41 39 00 93 3e 39 00 95 35 39 00 96 2b 39 20 91  >A9..>9..59..+9 .<
001910 3b 00 00 92 41 00 00 93 3e 00 00 91 3b 39 00 92  >;...A...>...;9..<
001920 41 39 00 93 3e 39 20 91 3b 00 00 92 41 00 00 93  >A9..>9 .;...A...<
001930 3e 00 00 91 3b 39 00 92 41 39 00 93 3e 39 20 95  >>...;9..A9..>9 .<
001940 35 00 00 96 2b 00 00 91 3b 00 00 92 41 00 00 93  >5...+...;...A...<
001950 3e 00 00 91 3b 39 00 93 3e 39 00 95 1f 39 20 90  >>...;9..>9...9 .<
001960 44 00 00 93 3e 00 00 90 40 52 20 40 00 00 41 52  >D...>...@R @..AR<
001970 20 91 3b 00 00 95 1f 00 00 90 41 00 00 43 52 00  > .;.......A..CR.<
001980 91 3e 39 00 95 2b 39 00 96 24 39 20 95 2b 00 00  >.>9..+9..$9 .+..<
001990 96 24 00 00 95 37 39 10 37 00 00 37 39 10 37 00  >.$...79.7..79.7.<
0019a0 00 37 39 20 91 3e 00 00 3c 39 20 95 37 00 00 37  >.79 .>..<9 .7..7<
0019b0 39 20 37 00 00 37 39 20 91 3c 00 00 3b 39 20 90  >9 7..79 .<..;9 .<
0019c0 43 00 00 95 37 00 00 90 40 52 00 95 37 39 20 90  >C...7...@R..79 .<
0019d0 40 00 00 95 37 00 00 90 41 52 00 95 37 39 20 91  >@...7...AR..79 .<
0019e0 3b 00 00 90 41 00 00 43 52 00 91 39 39 20 95 37  >;...A..CR..99 .7<
0019f0 00 00 90 43 00 00 41 52 00 95 37 39 20 90 41 00  >...C..AR..79 .A.<
001a00 00 95 37 00 00 90 40 52 00 95 37 39 20 91 39 00  >..7...@R..79 .9.<
001a10 00 90 40 00 00 95 37 00 00 90 43 52 00 91 3e 39  >..@...7...CR..>9<
001a20 00 95 2b 39 00 96 24 39 20 95 2b 00 00 96 24 00  >..+9..$9 .+...$.<
001a30 00 95 37 39 10 37 00 00 37 39 10 37 00 00 37 39  >..79.7..79.7..79<
001a40 20 91 3e 00 00 3c 39 20 95 37 00 00 37 39 20 37  > .>..<9 .7..79 7<
001a50 00 00 37 39 20 91 3c 00 00 3b 39 20 95 37 00 00  >..79 .<..;9 .7..<
001a60 37 39 20 37 00 00 37 39 20 91 3b 00 00 39 39 20  >79 7..79 .;..99 <
001a70 95 37 00 00 37 39 20 90 43 00 00 95 37 00 00 90  >.7..79 .C...7...<
001a80 43 52 00 95 37 39 20 91 39 00 00 90 43 00 00 95  >CR..79 .9...C...<
001a90 37 00 00 90 45 52 00 91 43 39 00 95 2d 39 20 2d  >7...ER..C9..-9 -<
001aa0 00 00 39 39 10 39 00 00 39 39 10 39 00 00 39 39  >..99.9..99.9..99<
001ab0 20 91 43 00 00 41 39 20 95 39 00 00 39 39 20 39  > .C..A9 .9..99 9<
001ac0 00 00 39 39 20 91 41 00 00 40 39 20 90 45 00 00  >..99 .A..@9 .E..<
001ad0 95 39 00 00 90 41 52 00 95 39 39 20 90 41 00 00  >.9...AR..99 .A..<
001ae0 95 39 00 00 90 43 52 00 95 39 39 20 91 40 00 00  >.9...CR..99 .@..<
001af0 90 43 00 00 45 52 00 91 3e 39 20 95 39 00 00 90  >.C..ER..>9 .9...<
001b00 45 00 00 43 52 00 95 39 39 20 90 43 00 00 95 39  >E..CR..99 .C...9<
001b10 00 00 90 41 52 00 95 39 39 20 91 3e 00 00 90 41  >...AR..99 .>...A<
001b20 00 00 95 39 00 00 90 45 52 00 91 43 39 00 95 2d  >...9...ER..C9..-<
001b30 39 00 96 26 39 20 95 2d 00 00 96 26 00 00 95 39  >9..&9 .-...&...9<
001b40 39 10 39 00 00 39 39 10 39 00 00 39 39 20 91 43  >9.9..99.9..99 .C<
001b50 00 00 41 39 20 95 39 00 00 39 39 20 39 00 00 39  >..A9 .9..99 9..9<
001b60 39 20 91 41 00 00 40 39 20 95 39 00 00 39 39 20  >9 .A..@9 .9..99 <
001b70 39 00 00 39 39 20 91 40 00 00 3e 39 20 95 39 00  >9..99 .@..>9 .9.<
001b80 00 39 39 20 90 45 00 00 95 39 00 00 90 51 52 00  >.99 .E...9...QR.<
001b90 92 45 52 00 95 39 39 20 91 3e 00 00 90 51 00 00  >.ER..99 .>...Q..<
001ba0 92 45 00 00 95 39 00 00 90 53 52 00 91 47 52 00  >.E...9...SR..GR.<
001bb0 92 4f 52 00 93 4c 52 00 95 2f 39 00 96 28 39 20  >.OR..LR../9..(9 <
001bc0 95 2f 00 00 96 28 00 00 95 3b 39 10 3b 00 00 3b  >./...(...;9.;..;<
001bd0 39 10 3b 00 00 3b 39 20 3b 00 00 34 39 20 34 00  >9.;..;9 ;..49 4.<
001be0 00 37 39 20 37 00 00 3b 39 20 3b 00 00 40 39 20  >.79 7..;9 ;..@9 <
001bf0 90 53 00 00 91 47 00 00 92 4f 00 00 93 4c 00 00  >.S...G...O...L..<
001c00 95 40 00 00 90 4c 52 00 91 40 52 00 95 3b 39 20  >.@...LR..@R..;9 <
001c10 90 4c 00 00 91 40 00 00 95 3b 00 00 90 4d 52 00  >.L...@...;...MR.<
001c20 91 41 52 00 95 37 39 20 90 4d 00 00 91 41 00 00  >.AR..79 .M...A..<
001c30 95 37 00 00 90 4f 52 00 91 43 52 00 95 34 39 20  >.7...OR..CR..49 <
001c40 90 4f 00 00 91 43 00 00 95 34 00 00 90 51 52 00  >.O...C...4...QR.<
001c50 91 45 52 00 95 2f 39 20 90 51 00 00 91 45 00 00  >.ER../9 .Q...E..<
001c60 95 2f 00 00 90 53 52 00 91 47 52 00 95 28 39 20  >./...SR..GR..(9 <
001c70 90 53 00 00 91 47 00 00 95 28 00 00 90 54 52 00  >.S...G...(...TR.<
001c80 91 48 52 00 92 51 52 00 93 4d 52 00 95 30 39 00  >.HR..QR..MR..09.<
001c90 96 29 39 20 95 30 00 00 96 29 00 00 95 3c 39 10  >.)9 .0...)...<9.<
001ca0 3c 00 00 3c 39 10 3c 00 00 3c 39 20 90 54 00 00  ><..<9.<..<9 .T..<
001cb0 91 48 00 00 92 51 00 00 93 4d 00 00 90 4d 52 00  >.H...Q...M...MR.<
001cc0 91 41 52 00 92 48 52 00 93 45 52 20 95 3c 00 00  >.AR..HR..ER .<..<
001cd0 3c 39 20 3c 00 00 3c 39 20 3c 00 00 29 39 20 29  ><9 <..<9 <..)9 )<
001ce0 00 00 30 39 20 30 00 00 39 39 20 90 4d 00 00 91  >..09 0..99 .M...<
001cf0 41 00 00 92 48 00 00 93 45 00 00 95 39 00 00 2a  >A...H...E...9..*<
001d00 39 20 2a 00 00 33 39 20 33 00 00 90 54 52 00 91  >9 *..39 3...TR..<
001d10 48 52 00 92 50 52 00 93 4e 52 00 94 4b 52 00 95  >HR..PR..NR..KR..<
001d20 3c 39 20 90 54 00 00 91 48 00 00 92 50 00 00 93  ><9 .T...H...P...<
001d30 4e 00 00 94 4b 00 00 95 3c 00 00 90 58 52 00 91  >N...K...<...XR..<
001d40 4c 52 00 92 54 52 00 93 4f 52 00 95 37 39 00 96  >LR..TR..OR..79..<
001d50 30 39 00 97 2b 39 20 95 37 00 00 96 30 00 00 97  >09..+9 .7...0...<
001d60 2b 00 00 95 37 39 10 37 00 00 37 39 10 37 00 00  >+...79.7..79.7..<
001d70 37 39 20 37 00 00 37 39 20 37 00 00 3c 39 20 3c  >79 7..79 7..<9 <<
001d80 00 00 40 39 20 40 00 00 3c 39 00 96 39 39 00 97  >..@9 @..<9..99..<
001d90 35 39 00 98 32 39 20 90 58 00 00 91 4c 00 00 92  >59..29 .X...L...<
001da0 54 00 00 93 4f 00 00 90 54 52 00 91 48 52 20 90  >T...O...TR..HR .<
001db0 54 00 00 91 48 00 00 90 56 52 00 91 4a 52 20 95  >T...H...VR..JR .<
001dc0 3c 00 00 96 39 00 00 97 35 00 00 98 32 00 00 90  ><...9...5...2...<
001dd0 56 00 00 91 4a 00 00 90 58 52 00 91 4d 52 00 92  >V...J...XR..MR..<
001de0 54 52 00 93 51 52 00 95 2d 39 00 96 1f 39 20 90  >TR..QR..-9...9 .<
001df0 58 00 00 91 4d 00 00 92 54 00 00 93 51 00 00 90  >X...M...T...Q...<
001e00 56 52 00 91 4a 52 20 90 56 00 00 91 4a 00 00 90  >VR..JR .V...J...<
001e10 54 52 00 91 48 52 20 95 2d 00 00 96 1f 00 00 90  >TR..HR .-.......<
001e20 54 00 00 91 48 00 00 90 5b 52 00 91 4f 52 00 92  >T...H...[R..OR..<
001e30 58 52 00 93 54 52 00 94 24 52 00 98 18 39 20 90  >XR..TR..$R...9 .<
001e40 5b 00 00 91 4f 00 00 92 58 00 00 93 54 00 00 90  >[...O...X...T...<
001e50 56 52 00 91 4a 52 00 92 4f 52 00 93 4c 52 00 95  >VR..JR..OR..LR..<
001e60 37 39 00 96 34 39 00 97 2b 39 10 90 56 00 00 91  >79..49..+9..V...<
001e70 4a 00 00 92 4f 00 00 93 4c 00 00 95 37 00 00 96  >J...O...L...7...<
001e80 34 00 00 97 2b 00 00 90 56 52 00 91 4a 52 00 92  >4...+...VR..JR..<
001e90 4f 52 00 93 4c 52 00 95 37 39 00 96 34 39 00 97  >OR..LR..79..49..<
001ea0 2b 39 10 90 56 00 00 91 4a 00 00 92 4f 00 00 93  >+9..V...J...O...<
001eb0 4c 00 00 95 37 00 00 96 34 00 00 97 2b 00 00 90  >L...7...4...+...<
001ec0 56 52 00 91 4a 52 00 92 4f 52 00 93 4c 52 00 95  >VR..JR..OR..LR..<
001ed0 37 39 00 96 34 39 00 97 2b 39 20 90 56 00 00 91  >79..49..+9 .V...<
001ee0 4a 00 00 92 4f 00 00 93 4c 00 00 95 37 00 00 96  >J...O...L...7...<
001ef0 34 00 00 97 2b 00 00 90 54 52 00 91 48 52 00 92  >4...+...TR..HR..<
001f00 4f 52 00 93 4c 52 00 95 39 39 00 96 34 39 00 97  >OR..LR..99..49..<
001f10 2d 39 20 90 54 00 00 91 48 00 00 92 4f 00 00 93  >-9 .T...H...O...<
001f20 4c 00 00 95 39 00 00 96 34 00 00 97 2d 00 00 90  >L...9...4...-...<
001f30 54 52 00 91 48 52 00 92 4f 52 00 93 4c 52 00 95  >TR..HR..OR..LR..<
001f40 39 39 00 96 34 39 00 97 2d 39 20 90 54 00 00 91  >99..49..-9 .T...<
001f50 48 00 00 92 4f 00 00 93 4c 00 00 95 39 00 00 96  >H...O...L...9...<
001f60 34 00 00 97 2d 00 00 90 54 52 00 91 48 52 00 92  >4...-...TR..HR..<
001f70 4f 52 00 93 4c 52 00 95 39 39 00 96 34 39 00 97  >OR..LR..99..49..<
001f80 2d 39 20 90 54 00 00 91 48 00 00 92 4f 00 00 93  >-9 .T...H...O...<
001f90 4c 00 00 95 39 00 00 96 34 00 00 97 2d 00 00 90  >L...9...4...-...<
001fa0 53 52 00 91 47 52 00 92 4f 52 00 93 4c 52 00 95  >SR..GR..OR..LR..<
001fb0 3b 39 00 96 37 39 00 97 2f 39 20 90 53 00 00 91  >;9..79../9 .S...<
001fc0 47 00 00 92 4f 00 00 93 4c 00 00 95 3b 00 00 96  >G...O...L...;...<
001fd0 37 00 00 97 2f 00 00 90 53 52 00 91 47 52 00 92  >7.../...SR..GR..<
001fe0 4f 52 00 93 4c 52 00 95 3b 39 00 96 37 39 00 97  >OR..LR..;9..79..<
001ff0 2f 39 20 90 53 00 00 91 47 00 00 92 4f 00 00 93  >/9 .S...G...O...<
002000 4c 00 00 95 3b 00 00 96 37 00 00 97 2f 00 00 90  >L...;...7.../...<
002010 53 52 00 91 47 52 00 92 4f 52 00 93 4c 52 00 95  >SR..GR..OR..LR..<
002020 3b 39 00 96 37 39 00 97 2f 39 20 90 53 00 00 91  >;9..79../9 .S...<
002030 47 00 00 92 4f 00 00 93 4c 00 00 95 3b 00 00 96  >G...O...L...;...<
002040 37 00 00 97 2f 00 00 90 51 52 00 91 45 52 00 92  >7.../...QR..ER..<
002050 4c 52 00 93 48 52 00 95 3c 39 00 96 37 39 00 97  >LR..HR..<9..79..<
002060 30 39 20 90 51 00 00 91 45 00 00 92 4c 00 00 93  >09 .Q...E...L...<
002070 48 00 00 95 3c 00 00 96 37 00 00 97 30 00 00 90  >H...<...7...0...<
002080 51 52 00 91 45 52 00 92 4c 52 00 93 48 52 00 95  >QR..ER..LR..HR..<
002090 3c 39 00 96 37 39 00 97 30 39 20 90 51 00 00 91  ><9..79..09 .Q...<
0020a0 45 00 00 92 4c 00 00 93 48 00 00 95 3c 00 00 96  >E...L...H...<...<
0020b0 37 00 00 97 30 00 00 90 51 52 00 91 45 52 00 92  >7...0...QR..ER..<
0020c0 4c 52 00 93 48 52 00 95 3c 39 00 96 37 39 00 97  >LR..HR..<9..79..<
0020d0 30 39 20 94 24 00 00 98 18 00 00 90 51 00 00 91  >09 .$.......Q...<
0020e0 45 00 00 92 4c 00 00 93 48 00 00 95 3c 00 00 96  >E...L...H...<...<
0020f0 37 00 00 97 30 00 00 90 4f 52 00 91 43 52 00 92  >7...0...OR..CR..<
002100 48 52 00 93 45 52 00 94 24 52 00 98 18 39 20 90  >HR..ER..$R...9 .<
002110 4f 00 00 91 43 00 00 92 48 00 00 93 45 00 00 90  >O...C...H...E...<
002120 4f 52 00 91 43 52 00 92 48 52 00 93 45 52 00 95  >OR..CR..HR..ER..<
002130 3c 39 00 96 39 39 00 97 30 39 10 90 4f 00 00 91  ><9..99..09..O...<
002140 43 00 00 92 48 00 00 93 45 00 00 95 3c 00 00 96  >C...H...E...<...<
002150 39 00 00 97 30 00 00 90 4f 52 00 91 43 52 00 92  >9...0...OR..CR..<
002160 48 52 00 93 45 52 00 95 3c 39 00 96 39 39 00 97  >HR..ER..<9..99..<
002170 30 39 10 90 4f 00 00 91 43 00 00 92 48 00 00 93  >09..O...C...H...<
002180 45 00 00 95 3c 00 00 96 39 00 00 97 30 00 00 90  >E...<...9...0...<
002190 4f 52 00 91 43 52 00 92 48 52 00 93 45 52 00 95  >OR..CR..HR..ER..<
0021a0 3c 39 00 96 39 39 00 97 30 39 20 90 4f 00 00 91  ><9..99..09 .O...<
0021b0 43 00 00 92 48 00 00 93 45 00 00 95 3c 00 00 96  >C...H...E...<...<
0021c0 39 00 00 97 30 00 00 90 4d 52 00 91 41 52 00 92  >9...0...MR..AR..<
0021d0 48 52 00 93 45 52 00 95 3e 39 00 96 39 39 00 97  >HR..ER..>9..99..<
0021e0 32 39 20 90 4d 00 00 91 41 00 00 92 48 00 00 93  >29 .M...A...H...<
0021f0 45 00 00 95 3e 00 00 96 39 00 00 97 32 00 00 90  >E...>...9...2...<
002200 4d 52 00 91 41 52 00 92 48 52 00 93 45 52 00 95  >MR..AR..HR..ER..<
002210 3e 39 00 96 39 39 00 97 32 39 20 90 4d 00 00 91  >>9..99..29 .M...<
002220 41 00 00 92 48 00 00 93 45 00 00 95 3e 00 00 96  >A...H...E...>...<
002230 39 00 00 97 32 00 00 90 4d 52 00 91 41 52 00 92  >9...2...MR..AR..<
002240 48 52 00 93 45 52 00 95 3e 39 00 96 39 39 00 97  >HR..ER..>9..99..<
002250 32 39 20 90 4d 00 00 91 41 00 00 92 48 00 00 93  >29 .M...A...H...<
002260 45 00 00 95 3e 00 00 96 39 00 00 97 32 00 00 90  >E...>...9...2...<
002270 4c 52 00 91 40 52 00 92 48 52 00 93 45 52 00 95  >LR..@R..HR..ER..<
002280 3c 39 00 96 39 39 00 97 34 39 23 90 4c 00 00 91  ><9..99..49#.L...<
002290 40 00 00 92 48 00 00 93 45 00 00 95 3c 00 00 96  >@...H...E...<...<
0022a0 39 00 00 97 34 00 00 90 4c 52 00 91 40 52 00 92  >9...4...LR..@R..<
0022b0 48 52 00 93 45 52 00 95 3c 39 00 96 39 39 00 97  >HR..ER..<9..99..<
0022c0 34 39 23 90 4c 00 00 91 40 00 00 92 48 00 00 93  >49#.L...@...H...<
0022d0 45 00 00 95 3c 00 00 96 39 00 00 97 34 00 00 90  >E...<...9...4...<
0022e0 4c 52 00 91 40 52 00 92 48 52 00 93 45 52 00 95  >LR..@R..HR..ER..<
0022f0 3c 39 00 96 39 39 00 97 34 39 23 90 4c 00 00 91  ><9..99..49#.L...<
002300 40 00 00 92 48 00 00 93 45 00 00 95 3c 00 00 96  >@...H...E...<...<
002310 39 00 00 97 34 00 00 90 4a 52 00 91 3e 52 00 92  >9...4...JR..>R..<
002320 45 52 00 93 41 52 00 95 39 39 00 96 35 39 00 97  >ER..AR..99..59..<
002330 32 39 23 90 4a 00 00 91 3e 00 00 92 45 00 00 93  >29#.J...>...E...<
002340 41 00 00 95 39 00 00 96 35 00 00 97 32 00 00 90  >A...9...5...2...<
002350 4a 52 00 91 3e 52 00 92 45 52 00 93 41 52 00 95  >JR..>R..ER..AR..<
002360 39 39 00 96 35 39 00 97 32 39 23 90 4a 00 00 91  >99..59..29#.J...<
002370 3e 00 00 92 45 00 00 93 41 00 00 95 39 00 00 96  >>...E...A...9...<
002380 35 00 00 97 32 00 00 90 4a 52 00 91 3e 52 00 92  >5...2...JR..>R..<
002390 45 52 00 93 41 52 00 95 39 39 00 96 35 39 00 97  >ER..AR..99..59..<
0023a0 32 39 23 94 24 00 00 98 18 00 00 90 4a 00 00 91  >29#.$.......J...<
0023b0 3e 00 00 92 45 00 00 93 41 00 00 95 39 00 00 96  >>...E...A...9...<
0023c0 35 00 00 97 32 00 00 90 48 52 00 91 3c 52 00 92  >5...2...HR..<R..<
0023d0 41 52 00 93 3e 52 00 94 29 52 00 98 22 39 26 90  >AR..>R..)R.."9&.<
0023e0 48 00 00 91 3c 00 00 92 41 00 00 93 3e 00 00 90  >H...<...A...>...<
0023f0 48 52 00 91 3c 52 00 92 41 52 00 93 3e 52 00 95  >HR..<R..AR..>R..<
002400 35 39 13 90 48 00 00 91 3c 00 00 92 41 00 00 93  >59..H...<...A...<
002410 3e 00 00 95 35 00 00 90 48 52 00 91 3c 52 00 92  >>...5...HR..<R..<
002420 41 52 00 93 3e 52 00 95 35 39 13 90 48 00 00 91  >AR..>R..59..H...<
002430 3c 00 00 92 41 00 00 93 3e 00 00 95 35 00 00 90  ><...A...>...5...<
002440 48 52 00 91 3c 52 00 92 41 52 00 93 3e 52 00 95  >HR..<R..AR..>R..<
002450 35 39 27 90 48 00 00 91 3c 00 00 92 41 00 00 93  >59'.H...<...A...<
002460 3e 00 00 95 35 00 00 90 46 52 00 91 3a 52 00 93  >>...5...FR..:R..<
002470 3e 52 00 95 37 39 26 90 46 00 00 91 3a 00 00 93  >>R..79&.F...:...<
002480 3e 00 00 95 37 00 00 90 46 52 00 91 3a 52 00 93  >>...7...FR..:R..<
002490 3e 52 00 95 37 39 26 90 46 00 00 91 3a 00 00 93  >>R..79&.F...:...<
0024a0 3e 00 00 95 37 00 00 90 46 52 00 91 3a 52 00 93  >>...7...FR..:R..<
0024b0 3e 52 00 95 37 39 27 90 46 00 00 91 3a 00 00 93  >>R..79'.F...:...<
0024c0 3e 00 00 95 37 00 00 90 45 52 00 91 39 52 00 92  >>...7...ER..9R..<
0024d0 41 52 00 93 3e 52 00 95 35 39 00 96 32 39 00 97  >AR..>R..59..29..<
0024e0 2d 39 26 90 45 00 00 91 39 00 00 92 41 00 00 93  >-9&.E...9...A...<
0024f0 3e 00 00 95 35 00 00 96 32 00 00 97 2d 00 00 90  >>...5...2...-...<
002500 45 52 00 91 39 52 00 92 41 52 00 93 3e 52 00 97  >ER..9R..AR..>R..<
002510 2d 39 27 90 45 00 00 91 39 00 00 92 41 00 00 93  >-9'.E...9...A...<
002520 3e 00 00 97 2d 00 00 90 45 52 00 91 39 52 00 92  >>...-...ER..9R..<
002530 41 52 00 93 3e 52 00 97 2d 39 26 90 45 00 00 91  >AR..>R..-9&.E...<
002540 39 00 00 92 41 00 00 93 3e 00 00 97 2d 00 00 90  >9...A...>...-...<
002550 43 52 00 91 37 52 00 92 3e 52 00 93 3a 52 00 95  >CR..7R..>R..:R..<
002560 32 39 00 97 2b 39 26 90 43 00 00 91 37 00 00 92  >29..+9&.C...7...<
002570 3e 00 00 93 3a 00 00 95 32 00 00 97 2b 00 00 90  >>...:...2...+...<
002580 43 52 00 91 37 52 00 97 2b 39 27 90 43 00 00 91  >CR..7R..+9'.C...<
002590 37 00 00 97 2b 00 00 90 41 52 00 91 35 52 00 97  >7...+...AR..5R..<
0025a0 29 39 30 94 29 00 00 98 22 00 00 90 41 00 00 91  >)90.)..."...A...<
0025b0 35 00 00 97 29 00 00 90 4c 52 00 91 43 52 00 92  >5...)...LR..CR..<
0025c0 48 52 00 95 30 39 00 96 24 39 05 95 30 00 00 94  >HR..09..$9..0...<
0025d0 40 52 00 95 30 39 05 90 4c 00 00 96 24 00 00 90  >@R..09..L...$...<
0025e0 4c 52 00 96 24 39 05 94 40 00 00 95 30 00 00 94  >LR..$9..@...0...<
0025f0 40 52 00 95 30 39 05 90 4c 00 00 96 24 00 00 90  >@R..09..L...$...<
002600 4c 52 00 96 24 39 05 94 40 00 00 95 30 00 00 94  >LR..$9..@...0...<
002610 40 52 00 95 30 39 05 90 4c 00 00 96 24 00 00 90  >@R..09..L...$...<
002620 4c 52 00 96 24 39 05 94 40 00 00 95 30 00 00 94  >LR..$9..@...0...<
002630 40 52 00 95 30 39 05 90 4c 00 00 96 24 00 00 90  >@R..09..L...$...<
002640 4c 52 00 96 24 39 05 94 40 00 00 95 30 00 00 94  >LR..$9..@...0...<
002650 40 52 00 95 30 39 05 90 4c 00 00 96 24 00 00 90  >@R..09..L...$...<
002660 4c 52 00 96 24 39 05 94 40 00 00 95 30 00 00 94  >LR..$9..@...0...<
002670 40 52 00 95 30 39 06 90 4c 00 00 96 24 00 00 90  >@R..09..L...$...<
002680 4c 52 00 96 24 39 05 94 40 00 00 95 30 00 00 94  >LR..$9..@...0...<
002690 40 52 00 95 30 39 05 90 4c 00 00 96 24 00 00 90  >@R..09..L...$...<
0026a0 4c 52 00 96 24 39 05 94 40 00 00 95 30 00 00 94  >LR..$9..@...0...<
0026b0 40 52 00 95 30 39 05 90 4c 00 00 96 24 00 00 90  >@R..09..L...$...<
0026c0 4c 52 00 96 24 39 05 94 40 00 00 95 30 00 00 94  >LR..$9..@...0...<
0026d0 40 52 00 95 30 39 05 90 4c 00 00 96 24 00 00 90  >@R..09..L...$...<
0026e0 4c 52 00 96 24 39 05 94 40 00 00 95 30 00 00 94  >LR..$9..@...0...<
0026f0 40 52 00 95 30 39 05 90 4c 00 00 96 24 00 00 90  >@R..09..L...$...<
002700 4c 52 00 96 24 39 05 94 40 00 00 95 30 00 00 94  >LR..$9..@...0...<
002710 40 52 00 95 30 39 05 90 4c 00 00 96 24 00 00 90  >@R..09..L...$...<
002720 4c 52 00 96 24 39 05 94 40 00 00 95 30 00 00 94  >LR..$9..@...0...<
002730 40 52 00 95 30 39 05 90 4c 00 00 96 24 00 00 90  >@R..09..L...$...<
002740 4c 52 00 96 24 39 05 94 40 00 00 95 30 00 00 94  >LR..$9..@...0...<
002750 40 52 00 95 30 39 05 90 4c 00 00 96 24 00 00 90  >@R..09..L...$...<
002760 4c 52 00 96 24 39 05 94 40 00 00 95 30 00 00 94  >LR..$9..@...0...<
002770 40 52 00 95 30 39 05 90 4c 00 00 96 24 00 00 90  >@R..09..L...$...<
002780 4c 52 00 96 24 39 05 94 40 00 00 95 30 00 00 94  >LR..$9..@...0...<
002790 40 52 00 95 30 39 05 90 4c 00 00 96 24 00 00 90  >@R..09..L...$...<
0027a0 4c 52 00 96 24 39 06 94 40 00 00 95 30 00 00 94  >LR..$9..@...0...<
0027b0 40 52 00 95 30 39 05 90 4c 00 00 96 24 00 00 90  >@R..09..L...$...<
0027c0 4c 52 00 96 24 39 05 94 40 00 00 95 30 00 00 94  >LR..$9..@...0...<
0027d0 40 52 00 95 30 39 05 90 4c 00 00 96 24 00 00 90  >@R..09..L...$...<
0027e0 4c 52 00 96 24 39 05 94 40 00 00 95 30 00 00 94  >LR..$9..@...0...<
0027f0 40 52 00 95 30 39 05 90 4c 00 00 96 24 00 00 95  >@R..09..L...$...<
002800 30 00 00 90 4c 52 00 95 2d 45 00 96 24 39 05 94  >0...LR..-E..$9..<
002810 40 00 00 40 52 05 90 4c 00 00 96 24 00 00 90 4c  >@..@R..L...$...L<
002820 52 00 96 24 39 05 94 40 00 00 40 52 05 90 4c 00  >R..$9..@..@R..L.<
002830 00 96 24 00 00 90 4c 52 00 96 24 39 05 94 40 00  >..$...LR..$9..@.<
002840 00 40 52 05 90 4c 00 00 96 24 00 00 90 4c 52 00  >.@R..L...$...LR.<
002850 96 24 39 05 94 40 00 00 40 52 05 90 4c 00 00 96  >.$9..@..@R..L...<
002860 24 00 00 90 4c 52 00 96 24 39 05 94 40 00 00 40  >$...LR..$9..@..@<
002870 52 05 90 4c 00 00 96 24 00 00 90 4c 52 00 96 24  >R..L...$...LR..$<
002880 39 05 94 40 00 00 40 52 05 90 4c 00 00 96 24 00  >9..@..@R..L...$.<
002890 00 90 4c 52 05 94 40 00 00 40 52 06 90 4c 00 00  >..LR..@..@R..L..<
0028a0 4c 52 05 94 40 00 00 40 52 05 90 4c 00 00 4c 52  >LR..@..@R..L..LR<
0028b0 05 94 40 00 00 40 52 05 95 2d 00 00 90 4c 00 00  >..@..@R..-...L..<
0028c0 4c 52 00 95 2b 45 05 94 40 00 00 40 52 05 90 4c  >LR..+E..@..@R..L<
0028d0 00 00 4c 52 05 94 40 00 00 40 52 05 90 4c 00 00  >..LR..@..@R..L..<
0028e0 4c 52 05 94 40 00 00 40 52 05 95 2b 00 00 90 4c  >LR..@..@R..+...L<
0028f0 00 00 4c 52 00 95 28 45 05 94 40 00 00 40 52 05  >..LR..(E..@..@R.<
002900 90 4c 00 00 4c 52 05 94 40 00 00 40 52 05 90 4c  >.L..LR..@..@R..L<
002910 00 00 4c 52 05 94 40 00 00 40 52 05 95 28 00 00  >..LR..@..@R..(..<
002920 90 4c 00 00 4c 52 00 95 26 45 05 94 40 00 00 40  >.L..LR..&E..@..@<
002930 52 05 90 4c 00 00 4c 52 06 94 40 00 00 40 52 05  >R..L..LR..@..@R.<
002940 90 4c 00 00 4c 52 05 94 40 00 00 40 52 05 91 43  >.L..LR..@..@R..C<
002950 00 00 92 48 00 00 95 26 00 00 90 4c 00 00 94 40  >...H...&...L...@<
002960 00 00 90 58 52 00 91 54 52 00 92 4f 52 00 94 4c  >...XR..TR..OR..L<
002970 52 00 95 18 39 00 96 24 39 05 94 4c 00 00 96 24  >R...9..$9..L...$<
002980 00 00 94 4c 52 00 96 24 39 05 90 58 00 00 95 18  >...LR..$9..X....<
002990 00 00 90 58 52 00 95 18 39 05 94 4c 00 00 96 24  >...XR...9..L...$<
0029a0 00 00 94 4c 52 00 96 24 39 05 90 58 00 00 95 18  >...LR..$9..X....<
0029b0 00 00 90 58 52 00 95 18 39 05 94 4c 00 00 96 24  >...XR...9..L...$<
0029c0 00 00 94 4c 52 00 96 24 39 05 90 58 00 00 95 18  >...LR..$9..X....<
0029d0 00 00 90 58 52 00 95 18 39 05 94 4c 00 00 96 24  >...XR...9..L...$<
0029e0 00 00 94 4c 52 00 96 24 39 05 90 58 00 00 95 18  >...LR..$9..X....<
0029f0 00 00 90 58 52 00 95 18 39 05 94 4c 00 00 96 24  >...XR...9..L...$<
002a00 00 00 94 4c 52 00 96 24 39 05 90 58 00 00 95 18  >...LR..$9..X....<
002a10 00 00 90 58 52 00 95 18 39 05 94 4c 00 00 96 24  >...XR...9..L...$<
002a20 00 00 94 4c 52 00 96 24 39 05 90 58 00 00 95 18  >...LR..$9..X....<
002a30 00 00 90 58 52 00 95 18 39 05 94 4c 00 00 96 24  >...XR...9..L...$<
002a40 00 00 94 4c 52 00 96 24 39 05 90 58 00 00 95 18  >...LR..$9..X....<
002a50 00 00 90 58 52 00 95 18 39 05 94 4c 00 00 96 24  >...XR...9..L...$<
002a60 00 00 94 4c 52 00 96 24 39 06 90 58 00 00 95 18  >...LR..$9..X....<
002a70 00 00 90 58 52 00 95 18 39 05 94 4c 00 00 96 24  >...XR...9..L...$<
002a80 00 00 94 4c 52 00 96 24 39 05 90 58 00 00 95 18  >...LR..$9..X....<
002a90 00 00 90 58 52 00 95 18 39 05 94 4c 00 00 96 24  >...XR...9..L...$<
002aa0 00 00 94 4c 52 00 96 24 39 05 90 58 00 00 95 18  >...LR..$9..X....<
002ab0 00 00 90 58 52 00 95 18 39 05 94 4c 00 00 96 24  >...XR...9..L...$<
002ac0 00 00 94 4c 52 00 96 24 39 05 90 58 00 00 95 18  >...LR..$9..X....<
002ad0 00 00 90 58 52 00 95 18 39 05 94 4c 00 00 96 24  >...XR...9..L...$<
002ae0 00 00 94 4c 52 00 96 24 39 05 90 58 00 00 95 18  >...LR..$9..X....<
002af0 00 00 90 58 52 00 95 18 39 05 94 4c 00 00 96 24  >...XR...9..L...$<
002b00 00 00 94 4c 52 00 96 24 39 05 90 58 00 00 95 18  >...LR..$9..X....<
002b10 00 00 90 58 52 00 95 18 39 05 94 4c 00 00 96 24  >...XR...9..L...$<
002b20 00 00 94 4c 52 00 96 24 39 05 90 58 00 00 95 18  >...LR..$9..X....<
002b30 00 00 90 58 52 00 95 18 39 05 94 4c 00 00 96 24  >...XR...9..L...$<
002b40 00 00 94 4c 52 00 96 24 39 05 90 58 00 00 95 18  >...LR..$9..X....<
002b50 00 00 90 58 52 00 95 18 39 05 94 4c 00 00 96 24  >...XR...9..L...$<
002b60 00 00 94 4c 52 00 96 24 39 05 90 58 00 00 95 18  >...LR..$9..X....<
002b70 00 00 90 58 52 00 95 18 39 05 94 4c 00 00 96 24  >...XR...9..L...$<
002b80 00 00 94 4c 52 00 96 24 39 05 90 58 00 00 95 18  >...LR..$9..X....<
002b90 00 00 90 58 52 00 95 18 39 06 94 4c 00 00 96 24  >...XR...9..L...$<
002ba0 00 00 94 4c 52 00 96 24 39 05 90 58 00 00 95 18  >...LR..$9..X....<
002bb0 00 00 90 58 52 00 95 18 39 05 94 4c 00 00 96 24  >...XR...9..L...$<
002bc0 00 00 94 4c 52 00 96 24 39 05 90 58 00 00 95 18  >...LR..$9..X....<
002bd0 00 00 90 58 52 00 95 18 39 05 94 4c 00 00 96 24  >...XR...9..L...$<
002be0 00 00 94 4c 52 00 96 24 39 05 90 58 00 00 95 18  >...LR..$9..X....<
002bf0 00 00 90 58 52 00 95 18 39 05 94 4c 00 00 96 24  >...XR...9..L...$<
002c00 00 00 94 4c 52 00 96 24 39 05 90 58 00 00 95 18  >...LR..$9..X....<
002c10 00 00 90 58 52 00 95 18 39 05 94 4c 00 00 96 24  >...XR...9..L...$<
002c20 00 00 94 4c 52 00 96 24 39 05 90 58 00 00 95 18  >...LR..$9..X....<
002c30 00 00 90 58 52 00 95 18 39 05 94 4c 00 00 96 24  >...XR...9..L...$<
002c40 00 00 94 4c 52 00 96 24 39 05 90 58 00 00 95 18  >...LR..$9..X....<
002c50 00 00 90 58 52 00 95 18 39 05 94 4c 00 00 96 24  >...XR...9..L...$<
002c60 00 00 94 4c 52 00 96 24 39 05 90 58 00 00 95 18  >...LR..$9..X....<
002c70 00 00 90 58 52 00 95 18 39 05 94 4c 00 00 96 24  >...XR...9..L...$<
002c80 00 00 94 4c 52 00 96 24 39 05 90 58 00 00 95 18  >...LR..$9..X....<
002c90 00 00 90 58 52 00 95 18 39 05 94 4c 00 00 96 24  >...XR...9..L...$<
002ca0 00 00 94 4c 52 00 96 24 39 05 90 58 00 00 95 18  >...LR..$9..X....<
002cb0 00 00 90 58 52 00 95 18 39 05 94 4c 00 00 96 24  >...XR...9..L...$<
002cc0 00 00 94 4c 52 00 96 24 39 06 90 58 00 00 95 18  >...LR..$9..X....<
002cd0 00 00 90 58 52 00 95 18 39 05 94 4c 00 00 96 24  >...XR...9..L...$<
002ce0 00 00 94 4c 52 00 96 24 39 05 90 58 00 00 95 18  >...LR..$9..X....<
002cf0 00 00 90 58 52 00 95 18 39 05 94 4c 00 00 96 24  >...XR...9..L...$<
002d00 00 00 94 4c 52 00 96 24 39 05 90 58 00 00 95 18  >...LR..$9..X....<
002d10 00 00 90 58 52 00 95 18 39 05 94 4c 00 00 96 24  >...XR...9..L...$<
002d20 00 00 94 4c 52 00 96 24 39 05 90 58 00 00 95 18  >...LR..$9..X....<
002d30 00 00 90 58 52 00 95 18 39 05 94 4c 00 00 96 24  >...XR...9..L...$<
002d40 00 00 94 4c 52 00 96 24 39 05 90 58 00 00 95 18  >...LR..$9..X....<
002d50 00 00 90 58 52 00 95 18 39 05 94 4c 00 00 96 24  >...XR...9..L...$<
002d60 00 00 94 4c 52 00 96 24 39 05 90 58 00 00 95 18  >...LR..$9..X....<
002d70 00 00 90 58 52 00 95 18 39 05 94 4c 00 00 96 24  >...XR...9..L...$<
002d80 00 00 94 4c 52 00 96 24 39 05 90 58 00 00 58 52  >...LR..$9..X..XR<
002d90 1e 91 54 00 00 92 4f 00 00 95 18 00 00 94 4c 00  >..T...O.......L.<
002da0 00 96 24 00 00 90 58 00 00 ff 2f 00              >..$...X.../.<
002dac
