000000 4d 54 68 64 00 00 00 06 00 00 00 01 00 5a 4d 54  >MThd.........ZMT<
000010 72 6b 00 00 33 57 00 ff 51 03 0e 4e 1c 00 ff 01  >rk..3W..Q..N....<
000020 26 43 6f 6e 76 65 72 74 65 64 20 66 72 6f 6d 20  >&Converted from <
000030 69 6d 70 64 72 65 61 6d 2e 63 6d 66 20 62 79 20  >impdream.cmf by <
000040 43 4d 46 32 4d 49 44 00 b0 67 00 00 69 00 00 c0  >CMF2MID..g..i...<
000050 00 56 00 b1 69 00 00 c1 00 56 00 b2 69 00 00 c2  >.V..i....V..i...<
000060 00 56 00 b3 69 00 00 c3 00 56 00 b4 69 00 00 c4  >.V..i....V..i...<
000070 00 56 00 b5 69 00 00 c5 00 56 00 b6 69 00 00 c6  >.V..i....V..i...<
000080 00 56 00 b7 69 00 00 c7 00 56 00 b8 69 00 00 c8  >.V..i....V..i...<
000090 00 56 00 90 4f 52 00 91 4c 52 00 ff 05 04 0a 54  >.V..OR..LR.....T<
0000a0 6f 20 00 92 4a 52 00 95 43 39 00 96 40 39 00 97  >o ..JR..C9..@9..<
0000b0 3e 39 81 40 90 4f 00 00 91 4c 00 00 92 4a 00 00  >>9.@.O...L...J..<
0000c0 95 43 00 00 96 40 00 00 97 3e 00 00 90 4f 52 00  >.C...@...>...OR.<
0000d0 91 4c 52 00 ff 05 06 64 72 65 61 6d 20 00 92 48  >.LR....dream ..H<
0000e0 52 00 95 43 39 00 96 40 39 00 97 3c 39 81 40 90  >R..C9..@9..<9.@.<
0000f0 4f 00 00 91 4c 00 00 92 48 00 00 95 43 00 00 96  >O...L...H...C...<
000100 40 00 00 97 3c 00 00 90 4f 52 00 91 4c 52 00 ff  >@...<...OR..LR..<
000110 05 04 74 68 65 20 00 92 4a 52 00 95 43 39 00 96  >..the ..JR..C9..<
000120 40 39 00 97 3e 39 81 40 90 4f 00 00 91 4c 00 00  >@9..>9.@.O...L..<
000130 92 4a 00 00 95 43 00 00 96 40 00 00 97 3e 00 00  >.J...C...@...>..<
000140 90 4f 52 00 91 4c 52 00 ff 05 02 69 6d 00 92 48  >.OR..LR....im..H<
000150 52 00 95 43 39 00 96 40 39 00 97 3c 39 81 40 90  >R..C9..@9..<9.@.<
000160 4f 00 00 91 4c 00 00 92 48 00 00 95 43 00 00 96  >O...L...H...C...<
000170 40 00 00 97 3c 00 00 90 4f 52 00 91 4c 52 00 ff  >@...<...OR..LR..<
000180 05 03 70 6f 73 00 92 4a 52 00 95 24 39 20 24 00  >..pos..JR..$9 $.<
000190 00 2b 39 20 2b 00 00 34 39 20 34 00 00 34 39 20  >.+9 +..49 4..49 <
0001a0 34 00 00 37 39 20 37 00 00 3c 39 20 90 4f 00 00  >4..79 7..<9 .O..<
0001b0 91 4c 00 00 92 4a 00 00 95 3c 00 00 90 4f 52 00  >.L...J...<...OR.<
0001c0 91 4c 52 00 ff 05 02 73 69 00 92 48 52 00 95 40  >.LR....si..HR..@<
0001d0 39 20 40 00 00 3c 39 20 3c 00 00 37 39 20 37 00  >9 @..<9 <..79 7.<
0001e0 00 34 39 20 34 00 00 30 39 20 30 00 00 2b 39 20  >.49 4..09 0..+9 <
0001f0 90 4f 00 00 91 4c 00 00 92 48 00 00 95 2b 00 00  >.O...L...H...+..<
000200 90 4f 52 00 91 4c 52 00 ff 05 04 62 6c 65 20 00  >.OR..LR....ble .<
000210 92 4a 52 00 95 24 39 20 24 00 00 2b 39 20 2b 00  >.JR..$9 $..+9 +.<
000220 00 34 39 20 34 00 00 34 39 20 34 00 00 37 39 20  >.49 4..49 4..79 <
000230 37 00 00 3c 39 20 90 4f 00 00 91 4c 00 00 92 4a  >7..<9 .O...L...J<
000240 00 00 95 3c 00 00 90 4f 52 00 91 4c 52 00 ff 05  >...<...OR..LR...<
000250 07 64 72 65 61 6d 2c 20 00 92 48 52 00 95 40 39  >.dream, ..HR..@9<
000260 20 40 00 00 3c 39 20 3c 00 00 37 39 20 37 00 00  > @..<9 <..79 7..<
000270 34 39 20 34 00 00 30 39 20 90 4f 00 00 91 4c 00  >49 4..09 .O...L.<
000280 00 92 48 00 00 95 30 00 00 90 40 52 00 95 2b 39  >..H...0...@R..+9<
000290 20 90 40 00 00 95 2b 00 00 90 43 52 00 95 24 39  > .@...+...CR..$9<
0002a0 20 24 00 00 2b 39 20 2b 00 00 34 39 20 34 00 00  > $..+9 +..49 4..<
0002b0 34 39 20 34 00 00 37 39 20 37 00 00 3c 39 20 3c  >49 4..79 7..<9 <<
0002c0 00 00 40 39 20 90 43 00 00 95 40 00 00 90 40 52  >..@9 .C...@...@R<
0002d0 00 95 3c 39 20 90 40 00 00 95 3c 00 00 90 41 52  >..<9 .@...<...AR<
0002e0 00 95 37 39 20 90 41 00 00 95 37 00 00 90 43 52  >..79 .A...7...CR<
0002f0 00 95 34 39 20 90 43 00 00 95 34 00 00 90 41 52  >..49 .C...4...AR<
000300 00 95 30 39 20 90 41 00 00 95 30 00 00 90 40 52  >..09 .A...0...@R<
000310 00 95 2b 39 20 90 40 00 00 95 2b 00 00 90 43 52  >..+9 .@...+...CR<
000320 00 95 24 39 20 24 00 00 2b 39 20 2b 00 00 34 39  >..$9 $..+9 +..49<
000330 20 34 00 00 34 39 20 34 00 00 37 39 20 37 00 00  > 4..49 4..79 7..<
000340 3c 39 20 3c 00 00 40 39 20 40 00 00 3c 39 20 3c  ><9 <..@9 @..<9 <<
000350 00 00 37 39 20 37 00 00 34 39 20 34 00 00 30 39  >..79 7..49 4..09<
000360 20 90 43 00 00 95 30 00 00 90 43 52 00 95 2b 39  > .C...0...CR..+9<
000370 20 90 43 00 00 95 2b 00 00 90 45 52 00 95 24 39  > .C...+...ER..$9<
000380 20 24 00 00 2d 39 20 2d 00 00 30 39 20 30 00 00  > $..-9 -..09 0..<
000390 35 39 20 35 00 00 39 39 20 39 00 00 3c 39 20 3c  >59 5..99 9..<9 <<
0003a0 00 00 41 39 20 90 45 00 00 95 41 00 00 90 41 52  >..A9 .E...A...AR<
0003b0 00 95 3c 39 20 90 41 00 00 95 3c 00 00 90 43 52  >..<9 .A...<...CR<
0003c0 00 95 39 39 20 90 43 00 00 95 39 00 00 90 45 52  >..99 .C...9...ER<
0003d0 00 95 35 39 20 90 45 00 00 95 35 00 00 90 43 52  >..59 .E...5...CR<
0003e0 00 95 30 39 20 90 43 00 00 95 30 00 00 90 41 52  >..09 .C...0...AR<
0003f0 00 95 2d 39 20 90 41 00 00 95 2d 00 00 90 45 52  >..-9 .A...-...ER<
000400 00 95 24 39 20 24 00 00 2d 39 20 2d 00 00 30 39  >..$9 $..-9 -..09<
000410 20 30 00 00 35 39 20 35 00 00 39 39 20 39 00 00  > 0..59 5..99 9..<
000420 3c 39 20 3c 00 00 41 39 20 41 00 00 3c 39 20 3c  ><9 <..A9 A..<9 <<
000430 00 00 39 39 20 39 00 00 35 39 20 35 00 00 30 39  >..99 9..59 5..09<
000440 20 90 45 00 00 95 30 00 00 90 45 52 00 95 2d 39  > .E...0...ER..-9<
000450 20 90 45 00 00 95 2d 00 00 90 47 52 00 95 28 39  > .E...-...GR..(9<
000460 20 28 00 00 2f 39 20 2f 00 00 37 39 20 37 00 00  > (../9 /..79 7..<
000470 34 39 20 34 00 00 37 39 20 37 00 00 3b 39 20 3b  >49 4..79 7..;9 ;<
000480 00 00 40 39 20 90 47 00 00 95 40 00 00 90 40 52  >..@9 .G...@...@R<
000490 00 95 3b 39 20 90 40 00 00 95 3b 00 00 90 41 52  >..;9 .@...;...AR<
0004a0 00 95 37 39 20 90 41 00 00 95 37 00 00 90 43 52  >..79 .A...7...CR<
0004b0 00 95 34 39 20 90 43 00 00 95 34 00 00 90 45 52  >..49 .C...4...ER<
0004c0 00 95 2f 39 20 90 45 00 00 95 2f 00 00 90 47 52  >../9 .E.../...GR<
0004d0 00 95 28 39 20 90 47 00 00 95 28 00 00 90 48 52  >..(9 .G...(...HR<
0004e0 00 95 29 39 20 29 00 00 30 39 20 30 00 00 39 39  >..)9 )..09 0..99<
0004f0 20 90 48 00 00 95 39 00 00 90 41 52 00 95 39 39  > .H...9...AR..99<
000500 20 39 00 00 35 39 20 35 00 00 3c 39 20 3c 00 00  > 9..59 5..<9 <..<
000510 41 39 20 41 00 00 3c 39 20 3c 00 00 39 39 20 39  >A9 A..<9 <..99 9<
000520 00 00 35 39 20 35 00 00 30 39 20 90 41 00 00 95  >..59 5..09 .A...<
000530 30 00 00 90 43 52 00 95 29 39 20 90 43 00 00 95  >0...CR..)9 .C...<
000540 29 00 00 90 45 52 00 95 26 39 20 26 00 00 2d 39  >)...ER..&9 &..-9<
000550 20 2d 00 00 35 39 20 35 00 00 35 39 20 35 00 00  > -..59 5..59 5..<
000560 32 39 20 32 00 00 39 39 20 39 00 00 3e 39 20 90  >29 2..99 9..>9 .<
000570 45 00 00 95 3e 00 00 90 3e 52 00 95 39 39 20 90  >E...>...>R..99 .<
000580 3e 00 00 95 39 00 00 90 40 52 00 95 35 39 20 90  >>...9...@R..59 .<
000590 40 00 00 95 35 00 00 90 41 52 00 95 32 39 20 90  >@...5...AR..29 .<
0005a0 41 00 00 95 32 00 00 90 43 52 00 95 2d 39 20 90  >A...2...CR..-9 .<
0005b0 43 00 00 95 2d 00 00 90 45 52 00 95 26 39 20 90  >C...-...ER..&9 .<
0005c0 45 00 00 95 26 00 00 90 47 52 00 95 2b 39 20 2b  >E...&...GR..+9 +<
0005d0 00 00 32 39 20 32 00 00 3b 39 20 3b 00 00 3b 39  >..29 2..;9 ;..;9<
0005e0 20 3b 00 00 37 39 20 37 00 00 3e 39 20 3e 00 00  > ;..79 7..>9 >..<
0005f0 43 39 20 43 00 00 3e 39 20 3e 00 00 3b 39 20 3b  >C9 C..>9 >..;9 ;<
000600 00 00 37 39 20 37 00 00 32 39 20 90 47 00 00 95  >..79 7..29 .G...<
000610 32 00 00 90 4c 52 00 91 40 52 00 ff 05 04 0a 54  >2...LR..@R.....T<
000620 6f 20 00 95 2b 39 20 91 40 00 00 95 2b 00 00 91  >o ..+9 .@...+...<
000630 43 52 00 ff 05 06 66 69 67 68 74 20 00 95 24 39  >CR....fight ..$9<
000640 08 92 4a 52 08 90 4c 00 00 4f 52 10 95 24 00 00  >..JR..L..OR..$..<
000650 2b 39 20 2b 00 00 34 39 20 92 4a 00 00 95 34 00  >+9 +..49 .J...4.<
000660 00 92 48 52 00 95 34 39 20 34 00 00 37 39 20 37  >..HR..49 4..79 7<
000670 00 00 3c 39 20 92 48 00 00 95 3c 00 00 92 47 52  >..<9 .H...<...GR<
000680 00 95 40 39 20 91 43 00 00 90 4f 00 00 95 40 00  >..@9 .C...O...@.<
000690 00 90 4c 52 00 91 40 52 00 ff 05 04 74 68 65 20  >..LR..@R....the <
0006a0 00 95 3c 39 20 90 4c 00 00 91 40 00 00 95 3c 00  >..<9 .L...@...<.<
0006b0 00 90 4d 52 00 91 41 52 00 ff 05 02 75 6e 00 95  >..MR..AR....un..<
0006c0 37 39 20 92 47 00 00 90 4d 00 00 91 41 00 00 95  >79 .G...M...A...<
0006d0 37 00 00 90 4f 52 00 91 43 52 00 ff 05 04 62 65  >7...OR..CR....be<
0006e0 61 74 00 92 45 52 00 95 34 39 20 90 4f 00 00 91  >at..ER..49 .O...<
0006f0 43 00 00 95 34 00 00 90 4d 52 00 91 41 52 00 ff  >C...4...MR..AR..<
000700 05 01 61 00 95 30 39 20 90 4d 00 00 91 41 00 00  >..a..09 .M...A..<
000710 95 30 00 00 90 4c 52 00 91 40 52 00 ff 05 04 62  >.0...LR..@R....b<
000720 6c 65 20 00 95 2b 39 20 91 40 00 00 95 2b 00 00  >le ..+9 .@...+..<
000730 91 43 52 00 ff 05 05 66 6f 65 2c 20 00 95 24 39  >.CR....foe, ..$9<
000740 08 92 45 00 00 4a 52 08 90 4c 00 00 4f 52 10 95  >..E..JR..L..OR..<
000750 24 00 00 2b 39 20 2b 00 00 34 39 20 92 4a 00 00  >$..+9 +..49 .J..<
000760 95 34 00 00 92 48 52 00 95 34 39 20 34 00 00 37  >.4...HR..49 4..7<
000770 39 20 37 00 00 3c 39 20 92 48 00 00 95 3c 00 00  >9 7..<9 .H...<..<
000780 92 47 52 00 95 40 39 20 40 00 00 3c 39 20 3c 00  >.GR..@9 @..<9 <.<
000790 00 37 39 20 92 47 00 00 95 37 00 00 92 45 52 00  >.79 .G...7...ER.<
0007a0 95 34 39 20 34 00 00 30 39 20 91 43 00 00 90 4f  >.49 4..09 .C...O<
0007b0 00 00 95 30 00 00 90 4f 52 00 91 43 52 00 ff 05  >...0...OR..CR...<
0007c0 04 0a 54 6f 20 00 95 2b 39 20 91 43 00 00 95 2b  >..To ..+9 .C...+<
0007d0 00 00 91 45 52 00 ff 05 05 62 65 61 72 20 00 95  >...ER....bear ..<
0007e0 24 39 08 92 45 00 00 4f 52 08 90 4f 00 00 51 52  >$9..E..OR..O..QR<
0007f0 10 95 24 00 00 2d 39 20 2d 00 00 30 39 20 92 4f  >..$..-9 -..09 .O<
000800 00 00 95 30 00 00 92 4d 52 00 95 35 39 20 35 00  >...0...MR..59 5.<
000810 00 39 39 20 39 00 00 3c 39 20 92 4d 00 00 95 3c  >.99 9..<9 .M...<<
000820 00 00 92 4c 52 00 95 41 39 20 91 45 00 00 90 51  >...LR..A9 .E...Q<
000830 00 00 95 41 00 00 90 4d 52 00 91 41 52 00 ff 05  >...A...MR..AR...<
000840 05 77 69 74 68 20 00 95 3c 39 20 90 4d 00 00 91  >.with ..<9 .M...<
000850 41 00 00 95 3c 00 00 90 4f 52 00 91 43 52 00 ff  >A...<...OR..CR..<
000860 05 02 75 6e 00 95 39 39 20 92 4c 00 00 90 4f 00  >..un..99 .L...O.<
000870 00 91 43 00 00 95 39 00 00 90 51 52 00 91 45 52  >..C...9...QR..ER<
000880 00 ff 05 04 62 65 61 72 00 92 4a 52 00 95 35 39  >....bear..JR..59<
000890 20 90 51 00 00 91 45 00 00 95 35 00 00 90 4f 52  > .Q...E...5...OR<
0008a0 00 91 43 52 00 ff 05 01 61 00 95 30 39 20 90 4f  >..CR....a..09 .O<
0008b0 00 00 91 43 00 00 95 30 00 00 90 4d 52 00 91 41  >...C...0...MR..A<
0008c0 52 00 ff 05 04 62 6c 65 20 00 95 2d 39 20 91 41  >R....ble ..-9 .A<
0008d0 00 00 95 2d 00 00 91 45 52 00 ff 05 03 73 6f 72  >...-...ER....sor<
0008e0 00 95 24 39 08 92 4a 00 00 4f 52 08 90 4d 00 00  >..$9..J..OR..M..<
0008f0 51 52 10 95 24 00 00 2d 39 20 2d 00 00 30 39 20  >QR..$..-9 -..09 <
000900 92 4f 00 00 95 30 00 00 92 4d 52 00 95 35 39 20  >.O...0...MR..59 <
000910 35 00 00 39 39 20 39 00 00 3c 39 20 92 4d 00 00  >5..99 9..<9 .M..<
000920 95 3c 00 00 92 4c 52 00 95 41 39 20 41 00 00 3c  >.<...LR..A9 A..<<
000930 39 20 3c 00 00 39 39 20 92 4c 00 00 95 39 00 00  >9 <..99 .L...9..<
000940 92 4a 52 00 95 35 39 20 35 00 00 30 39 20 91 45  >.JR..59 5..09 .E<
000950 00 00 90 51 00 00 95 30 00 00 90 51 52 00 91 45  >...Q...0...QR..E<
000960 52 00 ff 05 05 72 6f 77 2c 20 00 95 2d 39 20 91  >R....row, ..-9 .<
000970 45 00 00 95 2d 00 00 93 47 52 00 95 28 39 08 92  >E...-...GR..(9..<
000980 4a 00 00 91 4f 52 00 ff 05 04 0a 54 6f 20 00 92  >J...OR.....To ..<
000990 4c 52 08 90 51 00 00 53 52 10 95 28 00 00 2f 39  >LR..Q..SR..(../9<
0009a0 20 2f 00 00 37 39 20 37 00 00 34 39 20 34 00 00  > /..79 7..49 4..<
0009b0 37 39 20 37 00 00 3b 39 20 3b 00 00 40 39 20 93  >79 7..;9 ;..@9 .<
0009c0 47 00 00 91 4f 00 00 92 4c 00 00 90 53 00 00 95  >G...O...L...S...<
0009d0 40 00 00 90 4c 52 00 91 40 52 00 ff 05 04 72 75  >@...LR..@R....ru<
0009e0 6e 20 00 95 3b 39 20 90 4c 00 00 91 40 00 00 95  >n ..;9 .L...@...<
0009f0 3b 00 00 90 4d 52 00 91 41 52 00 ff 05 06 77 68  >;...MR..AR....wh<
000a00 65 72 65 20 00 95 37 39 20 90 4d 00 00 91 41 00  >ere ..79 .M...A.<
000a10 00 95 37 00 00 90 4f 52 00 91 43 52 00 ff 05 04  >..7...OR..CR....<
000a20 74 68 65 20 00 95 34 39 20 90 4f 00 00 91 43 00  >the ..49 .O...C.<
000a30 00 95 34 00 00 90 51 52 00 91 45 52 00 ff 05 06  >..4...QR..ER....<
000a40 62 72 61 76 65 20 00 95 2f 39 20 90 51 00 00 91  >brave ../9 .Q...<
000a50 45 00 00 95 2f 00 00 90 53 52 00 91 47 52 00 ff  >E.../...SR..GR..<
000a60 05 05 64 61 72 65 20 00 95 28 39 20 28 00 00 93  >..dare ..(9 (...<
000a70 48 52 00 95 29 39 08 91 47 00 00 51 52 00 ff 05  >HR..)9..G..QR...<
000a80 04 6e 6f 74 20 00 92 4d 52 08 90 53 00 00 54 52  >.not ..MR..S..TR<
000a90 10 95 29 00 00 30 39 20 30 00 00 39 39 20 93 48  >..)..09 0..99 .H<
000aa0 00 00 91 51 00 00 92 4d 00 00 90 54 00 00 95 39  >...Q...M...T...9<
000ab0 00 00 90 4d 52 00 91 41 52 00 ff 05 04 67 6f 3b  >...MR..AR....go;<
000ac0 20 00 95 39 39 20 39 00 00 35 39 20 35 00 00 3c  > ..99 9..59 5..<<
000ad0 39 20 3c 00 00 41 39 20 41 00 00 3c 39 20 3c 00  >9 <..A9 A..<9 <.<
000ae0 00 39 39 20 39 00 00 35 39 20 35 00 00 30 39 20  >.99 9..59 5..09 <
000af0 90 4d 00 00 91 41 00 00 95 30 00 00 90 4f 52 00  >.M...A...0...OR.<
000b00 91 43 52 00 ff 05 04 0a 54 6f 20 00 95 29 39 20  >.CR.....To ..)9 <
000b10 29 00 00 93 45 52 00 95 26 39 08 91 43 00 00 4d  >)...ER..&9..C..M<
000b20 52 00 ff 05 06 72 69 67 68 74 20 00 92 4a 52 08  >R....right ..JR.<
000b30 90 4f 00 00 51 52 10 95 26 00 00 2d 39 20 2d 00  >.O..QR..&..-9 -.<
000b40 00 35 39 20 35 00 00 35 39 20 35 00 00 32 39 20  >.59 5..59 5..29 <
000b50 32 00 00 39 39 20 39 00 00 3e 39 20 93 45 00 00  >2..99 9..>9 .E..<
000b60 91 4d 00 00 92 4a 00 00 90 51 00 00 95 3e 00 00  >.M...J...Q...>..<
000b70 90 4d 52 00 91 41 52 00 ff 05 04 74 68 65 20 00  >.MR..AR....the .<
000b80 95 39 39 20 90 4d 00 00 91 41 00 00 95 39 00 00  >.99 .M...A...9..<
000b90 90 4f 52 00 91 43 52 00 ff 05 02 75 6e 00 95 35  >.OR..CR....un..5<
000ba0 39 20 90 4f 00 00 91 43 00 00 95 35 00 00 90 51  >9 .O...C...5...Q<
000bb0 52 00 91 45 52 00 ff 05 05 72 69 67 68 74 00 95  >R..ER....right..<
000bc0 32 39 20 90 51 00 00 91 45 00 00 95 32 00 00 90  >29 .Q...E...2...<
000bd0 53 52 00 91 47 52 00 ff 05 01 61 00 95 2d 39 20  >SR..GR....a..-9 <
000be0 90 53 00 00 91 47 00 00 95 2d 00 00 90 54 52 00  >.S...G...-...TR.<
000bf0 91 48 52 00 ff 05 04 62 6c 65 20 00 95 26 39 20  >.HR....ble ..&9 <
000c00 90 54 00 00 91 48 00 00 95 26 00 00 90 56 52 00  >.T...H...&...VR.<
000c10 91 4a 52 00 ff 05 07 77 72 6f 6e 67 2c 20 00 92  >.JR....wrong, ..<
000c20 53 52 00 93 4f 52 00 95 39 39 00 96 2b 39 20 95  >SR..OR..99..+9 .<
000c30 39 00 00 96 2b 00 00 95 3b 39 20 3b 00 00 39 39  >9...+...;9 ;..99<
000c40 20 39 00 00 37 39 20 37 00 00 39 39 20 39 00 00  > 9..79 7..99 9..<
000c50 37 39 20 90 56 00 00 91 4a 00 00 92 53 00 00 93  >79 .V...J...S...<
000c60 4f 00 00 95 37 00 00 90 4f 52 00 91 43 52 00 ff  >O...7...OR..CR..<
000c70 05 04 0a 54 6f 20 00 95 32 39 20 32 00 00 2b 39  >...To ..29 2..+9<
000c80 20 2b 00 00 32 39 20 32 00 00 3b 39 20 3b 00 00  > +..29 2..;9 ;..<
000c90 37 39 20 37 00 00 3e 39 20 90 4f 00 00 91 43 00  >79 7..>9 .O...C.<
000ca0 00 95 3e 00 00 90 58 52 00 91 4c 52 00 ff 05 06  >..>...XR..LR....<
000cb0 6c 6f 76 65 2c 20 00 92 54 52 00 93 4f 52 00 95  >love, ..TR..OR..<
000cc0 24 39 10 24 00 00 2b 39 10 2b 00 00 30 39 10 30  >$9.$..+9.+..09.0<
000cd0 00 00 34 39 10 34 00 00 37 39 10 37 00 00 3c 39  >..49.4..79.7..<9<
000ce0 10 3c 00 00 40 39 10 40 00 00 3c 39 10 3c 00 00  >.<..@9.@..<9.<..<
000cf0 37 39 10 37 00 00 34 39 10 34 00 00 30 39 10 30  >79.7..49.4..09.0<
000d00 00 00 2b 39 10 2b 00 00 24 39 40 90 58 00 00 91  >..+9.+..$9@.X...<
000d10 4c 00 00 92 54 00 00 93 4f 00 00 95 24 00 00 90  >L...T...O...$...<
000d20 54 52 00 91 48 52 00 ff 05 05 70 75 72 65 20 00  >TR..HR....pure .<
000d30 95 3c 39 20 90 54 00 00 91 48 00 00 95 3c 00 00  >.<9 .T...H...<..<
000d40 90 54 52 00 91 48 52 00 ff 05 04 61 6e 64 20 00  >.TR..HR....and .<
000d50 92 4f 52 00 93 4c 52 00 95 3c 39 00 96 37 39 00  >.OR..LR..<9..79.<
000d60 97 34 39 20 90 54 00 00 91 48 00 00 92 4f 00 00  >.49 .T...H...O..<
000d70 93 4c 00 00 95 3c 00 00 90 56 52 00 91 4a 52 00  >.L...<...VR..JR.<
000d80 ff 05 08 63 68 61 73 74 65 2c 20 00 95 3e 39 20  >...chaste, ..>9 <
000d90 96 37 00 00 97 34 00 00 90 56 00 00 91 4a 00 00  >.7...4...V...J..<
000da0 95 3e 00 00 90 54 52 00 91 48 52 00 ff 05 05 66  >.>...TR..HR....f<
000db0 72 6f 6d 20 00 95 3c 39 20 90 54 00 00 91 48 00  >rom ..<9 .T...H.<
000dc0 00 95 3c 00 00 90 58 52 00 91 4c 52 00 ff 05 01  >..<...XR..LR....<
000dd0 61 00 92 54 52 00 93 51 52 00 95 2d 39 10 2d 00  >a..TR..QR..-9.-.<
000de0 00 34 39 10 34 00 00 39 39 10 39 00 00 3c 39 10  >.49.4..99.9..<9.<
000df0 3c 00 00 40 39 10 40 00 00 45 39 10 45 00 00 48  ><..@9.@..E9.E..H<
000e00 39 10 48 00 00 45 39 10 45 00 00 40 39 10 40 00  >9.H..E9.E..@9.@.<
000e10 00 3c 39 10 3c 00 00 39 39 10 39 00 00 34 39 10  >.<9.<..99.9..49.<
000e20 34 00 00 2d 39 40 90 58 00 00 91 4c 00 00 92 54  >4..-9@.X...L...T<
000e30 00 00 93 51 00 00 95 2d 00 00 90 54 52 00 91 48  >...Q...-...TR..H<
000e40 52 00 ff 05 05 66 61 72 2c 20 00 95 3c 39 20 90  >R....far, ..<9 .<
000e50 54 00 00 91 48 00 00 95 3c 00 00 90 54 52 00 91  >T...H...<...TR..<
000e60 48 52 00 ff 05 04 0a 54 6f 20 00 92 51 52 00 93  >HR.....To ..QR..<
000e70 4c 52 00 95 3c 39 00 96 39 39 00 97 34 39 20 90  >LR..<9..99..49 .<
000e80 54 00 00 91 48 00 00 92 51 00 00 93 4c 00 00 95  >T...H...Q...L...<
000e90 3c 00 00 90 56 52 00 91 4a 52 00 ff 05 05 74 72  ><...VR..JR....tr<
000ea0 79 2c 20 00 95 3e 39 20 96 39 00 00 97 34 00 00  >y, ..>9 .9...4..<
000eb0 90 56 00 00 91 4a 00 00 95 3e 00 00 90 54 52 00  >.V...J...>...TR.<
000ec0 91 48 52 00 ff 05 05 77 68 65 6e 20 00 95 3c 39  >.HR....when ..<9<
000ed0 20 90 54 00 00 91 48 00 00 95 3c 00 00 90 58 52  > .T...H...<...XR<
000ee0 00 91 4c 52 00 ff 05 05 79 6f 75 72 20 00 92 53  >..LR....your ..S<
000ef0 52 00 93 4f 52 00 95 28 39 10 28 00 00 2f 39 10  >R..OR..(9.(../9.<
000f00 2f 00 00 34 39 10 34 00 00 37 39 10 37 00 00 3b  >/..49.4..79.7..;<
000f10 39 10 3b 00 00 40 39 10 90 58 00 00 91 4c 00 00  >9.;..@9..X...L..<
000f20 92 53 00 00 93 4f 00 00 95 40 00 00 90 53 52 00  >.S...O...@...SR.<
000f30 91 47 52 00 ff 05 05 61 72 6d 73 20 00 92 4f 52  >.GR....arms ..OR<
000f40 00 93 4c 52 00 95 43 39 10 43 00 00 40 39 10 40  >..LR..C9.C..@9.@<
000f50 00 00 3b 39 10 3b 00 00 37 39 10 37 00 00 34 39  >..;9.;..79.7..49<
000f60 10 34 00 00 2f 39 10 2f 00 00 28 39 40 90 53 00  >.4../9./..(9@.S.<
000f70 00 91 47 00 00 92 4f 00 00 93 4c 00 00 95 28 00  >..G...O...L...(.<
000f80 00 90 54 52 00 91 48 52 00 ff 05 04 61 72 65 20  >..TR..HR....are <
000f90 00 95 3c 39 20 90 54 00 00 91 48 00 00 95 3c 00  >..<9 .T...H...<.<
000fa0 00 90 56 52 00 91 4a 52 00 ff 05 04 74 6f 6f 20  >..VR..JR....too <
000fb0 00 92 4f 52 00 93 4c 52 00 95 3e 39 00 96 37 39  >..OR..LR..>9..79<
000fc0 00 97 34 39 20 90 56 00 00 91 4a 00 00 92 4f 00  >..49 .V...J...O.<
000fd0 00 93 4c 00 00 95 3e 00 00 90 54 52 00 91 48 52  >..L...>...TR..HR<
000fe0 00 ff 05 04 77 65 61 72 00 95 3c 39 20 96 37 00  >....wear..<9 .7.<
000ff0 00 97 34 00 00 90 54 00 00 91 48 00 00 95 3c 00  >..4...T...H...<.<
001000 00 90 53 52 00 91 47 52 00 ff 05 03 79 2c 20 00  >..SR..GR....y, .<
001010 95 3b 39 20 90 53 00 00 91 47 00 00 95 3b 00 00  >.;9 .S...G...;..<
001020 90 56 52 00 91 4a 52 00 ff 05 04 0a 54 6f 20 00  >.VR..JR.....To .<
001030 92 51 52 00 93 4d 52 00 95 29 39 10 29 00 00 30  >.QR..MR..)9.)..0<
001040 39 10 30 00 00 35 39 10 35 00 00 39 39 10 39 00  >9.0..59.5..99.9.<
001050 00 3c 39 10 3c 00 00 41 39 10 41 00 00 45 39 10  >.<9.<..A9.A..E9.<
001060 45 00 00 41 39 10 41 00 00 3c 39 10 3c 00 00 39  >E..A9.A..<9.<..9<
001070 39 10 39 00 00 35 39 10 35 00 00 30 39 10 30 00  >9.9..59.5..09.0.<
001080 00 29 39 40 90 56 00 00 91 4a 00 00 92 51 00 00  >.)9@.V...J...Q..<
001090 93 4d 00 00 95 29 00 00 90 51 52 00 91 45 52 00  >.M...)...QR..ER.<
0010a0 ff 05 06 72 65 61 63 68 20 00 95 39 39 20 90 51  >...reach ..99 .Q<
0010b0 00 00 91 45 00 00 95 39 00 00 90 54 52 00 91 48  >...E...9...TR..H<
0010c0 52 00 ff 05 04 74 68 65 20 00 92 51 52 00 93 4d  >R....the ..QR..M<
0010d0 52 00 95 3c 39 00 96 39 39 00 97 35 39 20 90 54  >R..<9..99..59 .T<
0010e0 00 00 91 48 00 00 92 51 00 00 93 4d 00 00 95 3c  >...H...Q...M...<<
0010f0 00 00 90 53 52 00 91 47 52 00 ff 05 02 75 6e 00  >...SR..GR....un.<
001100 95 3b 39 20 96 39 00 00 97 35 00 00 90 53 00 00  >.;9 .9...5...S..<
001110 91 47 00 00 95 3b 00 00 90 51 52 00 91 45 52 00  >.G...;...QR..ER.<
001120 ff 05 05 72 65 61 63 68 00 95 39 39 20 90 51 00  >...reach..99 .Q.<
001130 00 91 45 00 00 95 39 00 00 90 54 52 00 91 48 52  >..E...9...TR..HR<
001140 00 ff 05 01 61 00 92 51 52 00 93 4c 52 00 95 2d  >....a..QR..LR..-<
001150 39 10 2d 00 00 34 39 10 34 00 00 39 39 10 39 00  >9.-..49.4..99.9.<
001160 00 3c 39 10 3c 00 00 40 39 10 40 00 00 45 39 10  >.<9.<..@9.@..E9.<
001170 45 00 00 48 39 10 48 00 00 45 39 10 45 00 00 40  >E..H9.H..E9.E..@<
001180 39 10 40 00 00 3c 39 10 3c 00 00 39 39 10 39 00  >9.@..<9.<..99.9.<
001190 00 34 39 10 34 00 00 2d 39 20 90 54 00 00 91 48  >.49.4..-9 .T...H<
0011a0 00 00 92 51 00 00 93 4c 00 00 95 2d 00 00 90 51  >...Q...L...-...Q<
0011b0 52 00 91 45 52 00 ff 05 04 62 6c 65 20 00 95 39  >R..ER....ble ..9<
0011c0 39 20 90 51 00 00 91 45 00 00 95 39 00 00 90 53  >9 .Q...E...9...S<
0011d0 52 00 91 47 52 00 ff 05 06 73 74 61 72 21 20 00  >R..GR....star! .<
0011e0 95 3b 39 20 90 53 00 00 91 47 00 00 95 3b 00 00  >.;9 .S...G...;..<
0011f0 90 54 52 00 91 48 52 00 ff 05 06 0a 54 68 69 73  >.TR..HR.....This<
001200 20 00 92 51 52 00 93 4c 52 00 95 3c 39 00 96 39  > ..QR..LR..<9..9<
001210 39 00 97 34 39 20 90 54 00 00 91 48 00 00 92 51  >9..49 .T...H...Q<
001220 00 00 93 4c 00 00 95 3c 00 00 90 53 52 00 91 47  >...L...<...SR..G<
001230 52 00 ff 05 03 69 73 20 00 95 3b 39 20 96 39 00  >R....is ..;9 .9.<
001240 00 97 34 00 00 90 53 00 00 91 47 00 00 95 3b 00  >..4...S...G...;.<
001250 00 90 51 52 00 91 45 52 00 ff 05 03 6d 79 20 00  >..QR..ER....my .<
001260 95 39 39 20 90 51 00 00 91 45 00 00 95 39 00 00  >.99 .Q...E...9..<
001270 90 54 52 00 91 48 52 00 ff 05 06 51 75 65 73 74  >.TR..HR....Quest<
001280 20 00 92 50 52 00 93 4b 52 00 95 2c 39 10 2c 00  > ..PR..KR..,9.,.<
001290 00 33 39 10 33 00 00 38 39 10 38 00 00 3c 39 10  >.39.3..89.8..<9.<
0012a0 3c 00 00 3f 39 10 3f 00 00 44 39 10 44 00 00 48  ><..?9.?..D9.D..H<
0012b0 39 10 48 00 00 44 39 10 44 00 00 3f 39 10 3f 00  >9.H..D9.D..?9.?.<
0012c0 00 3c 39 10 3c 00 00 38 39 10 38 00 00 33 39 10  >.<9.<..89.8..39.<
0012d0 33 00 00 2c 39 20 90 54 00 00 91 48 00 00 92 50  >3..,9 .T...H...P<
0012e0 00 00 93 4b 00 00 95 2c 00 00 90 54 52 00 91 48  >...K...,...TR..H<
0012f0 52 00 ff 05 03 74 6f 20 00 95 3c 39 20 90 54 00  >R....to ..<9 .T.<
001300 00 91 48 00 00 95 3c 00 00 90 56 52 00 91 4a 52  >..H...<...VR..JR<
001310 00 ff 05 03 66 6f 6c 00 95 3e 39 20 90 56 00 00  >....fol..>9 .V..<
001320 91 4a 00 00 95 3e 00 00 90 58 52 00 91 4c 52 00  >.J...>...XR..LR.<
001330 ff 05 04 6c 6f 77 20 00 92 54 52 00 93 50 52 00  >...low ..TR..PR.<
001340 95 40 39 00 96 3c 39 00 97 38 39 20 90 58 00 00  >.@9..<9..89 .X..<
001350 91 4c 00 00 92 54 00 00 93 50 00 00 95 40 00 00  >.L...T...P...@..<
001360 90 56 52 00 91 4a 52 00 ff 05 05 74 68 61 74 20  >.VR..JR....that <
001370 00 95 3e 39 20 96 3c 00 00 97 38 00 00 90 56 00  >..>9 .<...8...V.<
001380 00 91 4a 00 00 95 3e 00 00 90 54 52 00 91 48 52  >..J...>...TR..HR<
001390 00 ff 05 06 73 74 61 72 2c 20 00 95 3c 39 20 90  >....star, ..<9 .<
0013a0 54 00 00 91 48 00 00 95 3c 00 00 90 58 52 00 91  >T...H...<...XR..<
0013b0 4c 52 00 ff 05 04 0a 4e 6f 20 00 92 54 52 00 93  >LR.....No ..TR..<
0013c0 4f 52 00 95 40 39 00 96 3c 39 00 97 37 39 20 90  >OR..@9..<9..79 .<
0013d0 58 00 00 91 4c 00 00 92 54 00 00 93 4f 00 00 90  >X...L...T...O...<
0013e0 54 52 00 91 48 52 00 ff 05 03 6d 61 74 20 90 54  >TR..HR....mat .T<
0013f0 00 00 91 48 00 00 90 56 52 00 91 4a 52 00 ff 05  >...H...VR..JR...<
001400 04 74 65 72 20 20 95 40 00 00 96 3c 00 00 97 37  >.ter  .@...<...7<
001410 00 00 90 56 00 00 91 4a 00 00 90 58 52 00 91 4c  >...V...J...XR..L<
001420 52 00 ff 05 04 68 6f 77 20 00 92 54 52 00 93 50  >R....how ..TR..P<
001430 52 00 95 40 39 00 96 3c 39 00 97 38 39 60 95 40  >R..@9..<9..89`.@<
001440 00 00 96 3c 00 00 97 38 00 00 95 40 39 00 96 3c  >...<...8...@9..<<
001450 39 00 97 39 39 20 90 58 00 00 91 4c 00 00 92 54  >9..99 .X...L...T<
001460 00 00 93 50 00 00 90 54 52 00 91 48 52 00 ff 05  >...P...TR..HR...<
001470 04 68 6f 70 65 20 90 54 00 00 91 48 00 00 90 56  >.hope .T...H...V<
001480 52 00 91 4a 52 00 ff 05 06 6c 65 73 73 2c 20 20  >R..JR....less,  <
001490 95 40 00 00 96 3c 00 00 97 39 00 00 90 56 00 00  >.@...<...9...V..<
0014a0 91 4a 00 00 90 58 52 00 91 4c 52 00 ff 05 03 6e  >.J...XR..LR....n<
0014b0 6f 20 00 92 54 52 00 93 51 52 00 95 40 39 00 96  >o ..TR..QR..@9..<
0014c0 3c 39 00 97 39 39 20 90 58 00 00 91 4c 00 00 92  ><9..99 .X...L...<
0014d0 54 00 00 93 51 00 00 95 40 00 00 90 59 52 00 91  >T...Q...@...YR..<
0014e0 4d 52 00 ff 05 03 6d 61 74 00 95 41 39 20 96 3c  >MR....mat..A9 .<<
0014f0 00 00 97 39 00 00 90 59 00 00 91 4d 00 00 95 41  >...9...Y...M...A<
001500 00 00 90 58 52 00 91 4c 52 00 ff 05 04 74 65 72  >...XR..LR....ter<
001510 20 00 95 40 39 20 90 58 00 00 91 4c 00 00 95 40  > ..@9 .X...L...@<
001520 00 00 90 56 52 00 91 4a 52 00 ff 05 04 68 6f 77  >...VR..JR....how<
001530 20 00 92 52 52 00 93 4d 52 00 95 22 39 10 22 00  > ..RR..MR.."9.".<
001540 00 29 39 10 29 00 00 2e 39 10 2e 00 00 32 39 10  >.)9.)...9....29.<
001550 32 00 00 35 39 10 35 00 00 3a 39 10 3a 00 00 3e  >2..59.5..:9.:..><
001560 39 10 3e 00 00 3a 39 10 3a 00 00 35 39 10 35 00  >9.>..:9.:..59.5.<
001570 00 32 39 10 32 00 00 2e 39 10 2e 00 00 29 39 10  >.29.2...9....)9.<
001580 29 00 00 22 39 20 22 00 00 35 39 20 35 00 00 3a  >).."9 "..59 5..:<
001590 39 20 3a 00 00 41 39 00 96 3e 39 40 90 56 00 00  >9 :..A9..>9@.V..<
0015a0 91 4a 00 00 92 52 00 00 93 4d 00 00 95 41 00 00  >.J...R...M...A..<
0015b0 96 3e 00 00 90 58 52 00 91 4c 52 00 ff 05 05 66  >.>...XR..LR....f<
0015c0 61 72 2c 20 00 95 40 39 20 90 58 00 00 91 4c 00  >ar, ..@9 .X...L.<
0015d0 00 95 40 00 00 90 59 52 00 91 4d 52 00 ff 05 04  >..@...YR..MR....<
0015e0 0a 54 6f 20 00 92 56 52 00 93 51 52 00 95 26 39  >.To ..VR..QR..&9<
0015f0 10 26 00 00 2d 39 10 2d 00 00 32 39 10 32 00 00  >.&..-9.-..29.2..<
001600 35 39 10 35 00 00 39 39 10 39 00 00 3e 39 10 3e  >59.5..99.9..>9.><
001610 00 00 41 39 10 41 00 00 3e 39 10 3e 00 00 39 39  >..A9.A..>9.>..99<
001620 10 39 00 00 35 39 10 35 00 00 32 39 10 32 00 00  >.9..59.5..29.2..<
001630 2d 39 10 2d 00 00 26 39 20 90 59 00 00 91 4d 00  >-9.-..&9 .Y...M.<
001640 00 92 56 00 00 93 51 00 00 95 26 00 00 90 56 52  >..V...Q...&...VR<
001650 00 91 4a 52 00 ff 05 06 66 69 67 68 74 20 00 95  >..JR....fight ..<
001660 3e 39 20 90 56 00 00 91 4a 00 00 95 3e 00 00 90  >>9 .V...J...>...<
001670 58 52 00 91 4c 52 00 ff 05 04 66 6f 72 20 00 95  >XR..LR....for ..<
001680 40 39 20 90 58 00 00 91 4c 00 00 95 40 00 00 90  >@9 .X...L...@...<
001690 59 52 00 91 4d 52 00 ff 05 04 74 68 65 20 00 92  >YR..MR....the ..<
0016a0 56 52 00 93 51 52 00 95 41 39 00 96 3e 39 00 97  >VR..QR..A9..>9..<
0016b0 39 39 20 90 59 00 00 91 4d 00 00 92 56 00 00 93  >99 .Y...M...V...<
0016c0 51 00 00 95 41 00 00 90 58 52 00 91 4c 52 00 ff  >Q...A...XR..LR..<
0016d0 05 06 72 69 67 68 74 20 00 95 40 39 20 96 3e 00  >..right ..@9 .>.<
0016e0 00 97 39 00 00 90 58 00 00 91 4c 00 00 95 40 00  >..9...X...L...@.<
0016f0 00 90 56 52 00 91 4a 52 00 ff 05 04 77 69 74 68  >..VR..JR....with<
001700 00 95 3e 39 20 90 56 00 00 91 4a 00 00 95 3e 00  >..>9 .V...J...>.<
001710 00 90 59 52 00 91 4d 52 00 ff 05 04 6f 75 74 20  >..YR..MR....out <
001720 00 92 56 52 00 93 52 52 00 95 2e 39 10 2e 00 00  >..VR..RR...9....<
001730 35 39 10 35 00 00 3a 39 10 3a 00 00 3e 39 10 3e  >59.5..:9.:..>9.><
001740 00 00 41 39 10 41 00 00 46 39 10 46 00 00 4a 39  >..A9.A..F9.F..J9<
001750 10 4a 00 00 46 39 10 46 00 00 41 39 10 41 00 00  >.J..F9.F..A9.A..<
001760 3e 39 10 3e 00 00 3a 39 10 3a 00 00 35 39 10 35  >>9.>..:9.:..59.5<
001770 00 00 2e 39 20 90 59 00 00 91 4d 00 00 92 56 00  >...9 .Y...M...V.<
001780 00 93 52 00 00 95 2e 00 00 90 58 52 00 91 4c 52  >..R.......XR..LR<
001790 00 ff 05 04 71 75 65 73 00 95 40 39 20 90 58 00  >....ques..@9 .X.<
0017a0 00 91 4c 00 00 95 40 00 00 90 59 52 00 91 4d 52  >..L...@...YR..MR<
0017b0 00 ff 05 05 74 69 6f 6e 20 00 95 41 39 20 90 59  >....tion ..A9 .Y<
0017c0 00 00 91 4d 00 00 95 41 00 00 90 58 52 00 91 4c  >...M...A...XR..L<
0017d0 52 00 ff 05 03 6f 72 20 00 95 40 39 00 96 3a 39  >R....or ..@9..:9<
0017e0 00 97 35 39 20 90 58 00 00 91 4c 00 00 95 40 00  >..59 .X...L...@.<
0017f0 00 90 56 52 00 91 4a 52 00 ff 05 07 70 61 75 73  >..VR..JR....paus<
001800 65 2c 20 00 95 3e 39 20 96 3a 00 00 97 35 00 00  >e, ..>9 .:...5..<
001810 90 56 00 00 91 4a 00 00 95 3e 00 00 90 54 52 00  >.V...J...>...TR.<
001820 91 48 52 00 ff 05 04 0a 54 6f 20 00 95 3c 39 20  >.HR.....To ..<9 <
001830 90 54 00 00 91 48 00 00 95 3c 00 00 90 53 52 00  >.T...H...<...SR.<
001840 91 47 52 00 ff 05 03 62 65 20 00 92 50 52 00 93  >.GR....be ..PR..<
001850 4c 52 00 95 28 39 10 28 00 00 2f 39 10 2f 00 00  >LR..(9.(../9./..<
001860 34 39 10 34 00 00 38 39 10 38 00 00 3b 39 10 3b  >49.4..89.8..;9.;<
001870 00 00 40 39 10 40 00 00 44 39 10 44 00 00 40 39  >..@9.@..D9.D..@9<
001880 10 40 00 00 3b 39 10 3b 00 00 38 39 10 38 00 00  >.@..;9.;..89.8..<
001890 34 39 10 34 00 00 2f 39 10 2f 00 00 28 39 20 28  >49.4../9./..(9 (<
0018a0 00 00 34 39 20 34 00 00 3b 39 20 3b 00 00 44 39  >..49 4..;9 ;..D9<
0018b0 00 96 40 39 20 90 53 00 00 91 47 00 00 92 50 00  >..@9 .S...G...P.<
0018c0 00 93 4c 00 00 95 44 00 00 90 53 52 00 91 47 52  >..L...D...SR..GR<
0018d0 00 ff 05 03 77 69 6c 00 95 3b 39 20 96 40 00 00  >....wil..;9 .@..<
0018e0 90 53 00 00 91 47 00 00 95 3b 00 00 90 54 52 00  >.S...G...;...TR.<
0018f0 91 48 52 00 ff 05 05 6c 69 6e 67 20 00 95 3c 39  >.HR....ling ..<9<
001900 20 90 54 00 00 91 48 00 00 95 3c 00 00 90 56 52  > .T...H...<...VR<
001910 00 91 4a 52 00 ff 05 03 74 6f 20 00 92 51 52 00  >..JR....to ..QR.<
001920 93 4d 52 00 95 29 39 10 29 00 00 30 39 10 30 00  >.MR..)9.)..09.0.<
001930 00 35 39 10 35 00 00 39 39 10 39 00 00 3c 39 10  >.59.5..99.9..<9.<
001940 3c 00 00 41 39 10 41 00 00 45 39 10 45 00 00 41  ><..A9.A..E9.E..A<
001950 39 10 41 00 00 3c 39 10 3c 00 00 39 39 10 39 00  >9.A..<9.<..99.9.<
001960 00 35 39 10 35 00 00 30 39 10 30 00 00 29 39 20  >.59.5..09.0..)9 <
001970 90 56 00 00 91 4a 00 00 92 51 00 00 93 4d 00 00  >.V...J...Q...M..<
001980 95 29 00 00 90 54 52 00 91 48 52 00 ff 05 06 6d  >.)...TR..HR....m<
001990 61 72 63 68 20 00 95 3c 39 20 90 54 00 00 91 48  >arch ..<9 .T...H<
0019a0 00 00 95 3c 00 00 90 53 52 00 91 47 52 00 ff 05  >...<...SR..GR...<
0019b0 02 69 6e 00 95 3b 39 20 90 53 00 00 91 47 00 00  >.in..;9 .S...G..<
0019c0 95 3b 00 00 90 56 52 00 91 4a 52 00 ff 05 03 74  >.;...VR..JR....t<
0019d0 6f 20 00 95 3e 39 00 96 39 39 00 97 35 39 20 90  >o ..>9..99..59 .<
0019e0 56 00 00 91 4a 00 00 95 3e 00 00 90 54 52 00 91  >V...J...>...TR..<
0019f0 48 52 00 ff 05 05 68 65 6c 6c 20 00 95 3c 39 20  >HR....hell ..<9 <
001a00 96 39 00 00 97 35 00 00 90 54 00 00 91 48 00 00  >.9...5...T...H..<
001a10 95 3c 00 00 90 53 52 00 91 47 52 00 ff 05 04 66  >.<...SR..GR....f<
001a20 6f 72 20 00 95 3b 39 20 90 53 00 00 91 47 00 00  >or ..;9 .S...G..<
001a30 95 3b 00 00 90 56 52 00 91 4a 52 00 ff 05 02 61  >.;...VR..JR....a<
001a40 20 00 92 51 52 00 93 4e 52 00 95 23 39 10 23 00  > ..QR..NR..#9.#.<
001a50 00 2f 39 10 2f 00 00 33 39 10 33 00 00 36 39 10  >./9./..39.3..69.<
001a60 36 00 00 39 39 10 39 00 00 3c 39 10 3c 00 00 3f  >6..99.9..<9.<..?<
001a70 39 10 3f 00 00 3c 39 10 3c 00 00 39 39 10 39 00  >9.?..<9.<..99.9.<
001a80 00 36 39 10 36 00 00 33 39 10 33 00 00 2f 39 10  >.69.6..39.3../9.<
001a90 2f 00 00 23 39 20 90 56 00 00 91 4a 00 00 92 51  >/..#9 .V...J...Q<
001aa0 00 00 93 4e 00 00 95 23 00 00 90 54 52 00 91 48  >...N...#...TR..H<
001ab0 52 00 ff 05 04 68 65 61 76 00 95 3c 39 20 90 54  >R....heav..<9 .T<
001ac0 00 00 91 48 00 00 95 3c 00 00 90 56 52 00 91 4a  >...H...<...VR..J<
001ad0 52 00 ff 05 02 65 6e 00 95 3e 39 20 90 56 00 00  >R....en..>9 .V..<
001ae0 91 4a 00 00 95 3e 00 00 90 54 52 00 91 48 52 00  >.J...>...TR..HR.<
001af0 ff 05 03 6c 79 20 00 92 51 52 00 93 4e 52 00 95  >...ly ..QR..NR..<
001b00 3c 39 00 96 36 39 00 97 33 39 20 90 54 00 00 91  ><9..69..39 .T...<
001b10 48 00 00 92 51 00 00 93 4e 00 00 95 3c 00 00 90  >H...Q...N...<...<
001b20 53 52 00 91 47 52 00 ff 05 07 63 61 75 73 65 21  >SR..GR....cause!<
001b30 20 00 95 3b 39 20 96 36 00 00 97 33 00 00 90 53  > ..;9 .6...3...S<
001b40 00 00 91 47 00 00 95 3b 00 00 90 51 52 00 91 45  >...G...;...QR..E<
001b50 52 00 ff 05 05 0a 41 6e 64 20 00 95 39 39 20 90  >R.....And ..99 .<
001b60 51 00 00 91 45 00 00 95 39 00 00 90 50 52 00 91  >Q...E...9...PR..<
001b70 44 52 00 ff 05 02 49 20 00 92 4d 52 00 93 48 52  >DR....I ..MR..HR<
001b80 00 95 29 39 10 29 00 00 30 39 10 30 00 00 35 39  >..)9.)..09.0..59<
001b90 10 35 00 00 38 39 10 38 00 00 3c 39 10 3c 00 00  >.5..89.8..<9.<..<
001ba0 41 39 10 41 00 00 44 39 10 44 00 00 41 39 10 41  >A9.A..D9.D..A9.A<
001bb0 00 00 3c 39 10 3c 00 00 38 39 10 38 00 00 35 39  >..<9.<..89.8..59<
001bc0 10 35 00 00 30 39 10 30 00 00 29 39 20 29 00 00  >.5..09.0..)9 )..<
001bd0 30 39 20 30 00 00 38 39 20 38 00 00 2c 39 20 2c  >09 0..89 8..,9 ,<
001be0 00 00 35 39 20 35 00 00 3c 39 20 90 50 00 00 91  >..59 5..<9 .P...<
001bf0 44 00 00 92 4d 00 00 93 48 00 00 95 3c 00 00 90  >D...M...H...<...<
001c00 44 52 00 91 3c 39 00 ff 05 06 6b 6e 6f 77 2c 20  >DR..<9....know, <
001c10 00 92 41 39 00 93 3e 39 00 95 29 39 30 91 3c 00  >..A9..>9..)90.<.<
001c20 00 92 41 00 00 93 3e 00 00 91 3c 39 00 ff 05 03  >..A...>...<9....<
001c30 69 66 20 00 92 41 39 00 93 3e 39 10 91 3c 00 00  >if ..A9..>9..<..<
001c40 92 41 00 00 93 3e 00 00 91 3c 39 00 ff 05 05 49  >.A...>...<9....I<
001c50 27 6c 6c 20 00 92 41 39 00 93 3e 39 20 95 29 00  >'ll ..A9..>9 .).<
001c60 00 91 3c 00 00 92 41 00 00 93 3e 00 00 91 3c 39  >..<...A...>...<9<
001c70 00 ff 05 02 6f 6e 00 92 41 39 00 93 3e 39 00 95  >....on..A9..>9..<
001c80 38 39 20 91 3c 00 00 92 41 00 00 93 3e 00 00 91  >89 .<...A...>...<
001c90 3c 39 00 ff 05 03 6c 79 20 00 92 41 39 00 93 3e  ><9....ly ..A9..><
001ca0 39 20 91 3c 00 00 92 41 00 00 93 3e 00 00 91 3c  >9 .<...A...>...<<
001cb0 39 00 ff 05 03 62 65 20 00 92 41 39 00 93 3e 39  >9....be ..A9..>9<
001cc0 20 95 38 00 00 91 3c 00 00 92 41 00 00 93 3e 00  > .8...<...A...>.<
001cd0 00 91 3b 39 00 ff 05 05 74 72 75 65 20 00 92 41  >..;9....true ..A<
001ce0 39 00 93 3e 39 00 95 35 39 00 96 2b 39 20 91 3b  >9..>9..59..+9 .;<
001cf0 00 00 92 41 00 00 93 3e 00 00 91 3b 39 00 ff 05  >...A...>...;9...<
001d00 03 74 6f 20 00 92 41 39 00 93 3e 39 20 91 3b 00  >.to ..A9..>9 .;.<
001d10 00 92 41 00 00 93 3e 00 00 91 3b 39 00 ff 05 05  >..A...>...;9....<
001d20 74 68 69 73 20 00 92 41 39 00 93 3e 39 20 95 35  >this ..A9..>9 .5<
001d30 00 00 96 2b 00 00 91 3b 00 00 92 41 00 00 93 3e  >...+...;...A...><
001d40 00 00 91 3b 39 00 ff 05 04 67 6c 6f 72 00 93 3e  >...;9....glor..><
001d50 39 00 95 1f 39 20 90 44 00 00 93 3e 00 00 90 40  >9...9 .D...>...@<
001d60 52 20 40 00 00 41 52 20 91 3b 00 00 95 1f 00 00  >R @..AR .;......<
001d70 90 41 00 00 43 52 00 91 3e 39 00 ff 05 01 69 00  >.A..CR..>9....i.<
001d80 95 2b 39 00 96 24 39 20 95 2b 00 00 96 24 00 00  >.+9..$9 .+...$..<
001d90 95 37 39 10 37 00 00 37 39 10 37 00 00 37 39 20  >.79.7..79.7..79 <
001da0 91 3e 00 00 3c 39 00 ff 05 04 6f 75 73 20 20 95  >.>..<9....ous  .<
001db0 37 00 00 37 39 20 37 00 00 37 39 20 91 3c 00 00  >7..79 7..79 .<..<
001dc0 3b 39 00 ff 05 07 51 75 65 73 74 2c 20 20 90 43  >;9....Quest,  .C<
001dd0 00 00 95 37 00 00 90 40 52 00 95 37 39 20 90 40  >...7...@R..79 .@<
001de0 00 00 95 37 00 00 90 41 52 00 95 37 39 20 91 3b  >...7...AR..79 .;<
001df0 00 00 90 41 00 00 43 52 00 91 39 39 00 ff 05 06  >...A..CR..99....<
001e00 0a 54 68 61 74 20 20 95 37 00 00 90 43 00 00 41  >.That  .7...C..A<
001e10 52 00 95 37 39 20 90 41 00 00 95 37 00 00 90 40  >R..79 .A...7...@<
001e20 52 00 95 37 39 20 91 39 00 00 90 40 00 00 95 37  >R..79 .9...@...7<
001e30 00 00 90 43 52 00 91 3e 39 00 ff 05 03 6d 79 20  >...CR..>9....my <
001e40 00 95 2b 39 00 96 24 39 20 95 2b 00 00 96 24 00  >..+9..$9 .+...$.<
001e50 00 95 37 39 10 37 00 00 37 39 10 37 00 00 37 39  >..79.7..79.7..79<
001e60 20 91 3e 00 00 3c 39 00 ff 05 06 68 65 61 72 74  > .>..<9....heart<
001e70 20 20 95 37 00 00 37 39 20 37 00 00 37 39 20 91  >  .7..79 7..79 .<
001e80 3c 00 00 3b 39 00 ff 05 05 77 69 6c 6c 20 20 95  ><..;9....will  .<
001e90 37 00 00 37 39 20 37 00 00 37 39 20 91 3b 00 00  >7..79 7..79 .;..<
001ea0 39 39 00 ff 05 04 6c 69 65 20 20 95 37 00 00 37  >99....lie  .7..7<
001eb0 39 20 90 43 00 00 95 37 00 00 90 43 52 00 95 37  >9 .C...7...CR..7<
001ec0 39 20 91 39 00 00 90 43 00 00 95 37 00 00 90 45  >9 .9...C...7...E<
001ed0 52 00 91 43 39 00 ff 05 05 70 65 61 63 65 00 95  >R..C9....peace..<
001ee0 2d 39 20 2d 00 00 39 39 10 39 00 00 39 39 10 39  >-9 -..99.9..99.9<
001ef0 00 00 39 39 20 91 43 00 00 41 39 00 ff 05 04 66  >..99 .C..A9....f<
001f00 75 6c 20 20 95 39 00 00 39 39 20 39 00 00 39 39  >ul  .9..99 9..99<
001f10 20 91 41 00 00 40 39 00 ff 05 04 61 6e 64 20 20  > .A..@9....and  <
001f20 90 45 00 00 95 39 00 00 90 41 52 00 95 39 39 20  >.E...9...AR..99 <
001f30 90 41 00 00 95 39 00 00 90 43 52 00 95 39 39 20  >.A...9...CR..99 <
001f40 91 40 00 00 90 43 00 00 45 52 00 91 3e 39 00 ff  >.@...C..ER..>9..<
001f50 05 05 63 61 6c 6d 20 20 95 39 00 00 90 45 00 00  >..calm  .9...E..<
001f60 43 52 00 95 39 39 20 90 43 00 00 95 39 00 00 90  >CR..99 .C...9...<
001f70 41 52 00 95 39 39 20 91 3e 00 00 90 41 00 00 95  >AR..99 .>...A...<
001f80 39 00 00 90 45 52 00 91 43 39 00 ff 05 05 77 68  >9...ER..C9....wh<
001f90 65 6e 20 00 95 2d 39 00 96 26 39 20 95 2d 00 00  >en ..-9..&9 .-..<
001fa0 96 26 00 00 95 39 39 10 39 00 00 39 39 10 39 00  >.&...99.9..99.9.<
001fb0 00 39 39 20 91 43 00 00 41 39 00 ff 05 04 49 27  >.99 .C..A9....I'<
001fc0 6d 20 20 95 39 00 00 39 39 20 39 00 00 39 39 20  >m  .9..99 9..99 <
001fd0 91 41 00 00 40 39 00 ff 05 05 6c 61 69 64 20 20  >.A..@9....laid  <
001fe0 95 39 00 00 39 39 20 39 00 00 39 39 20 91 40 00  >.9..99 9..99 .@.<
001ff0 00 3e 39 00 ff 05 03 74 6f 20 20 95 39 00 00 39  >.>9....to  .9..9<
002000 39 20 90 45 00 00 95 39 00 00 90 51 52 00 92 45  >9 .E...9...QR..E<
002010 52 00 95 39 39 20 91 3e 00 00 90 51 00 00 92 45  >R..99 .>...Q...E<
002020 00 00 95 39 00 00 90 53 52 00 91 47 52 00 ff 05  >...9...SR..GR...<
002030 03 6d 79 20 00 92 4f 52 00 93 4c 52 00 95 2f 39  >.my ..OR..LR../9<
002040 00 96 28 39 20 95 2f 00 00 96 28 00 00 95 3b 39  >..(9 ./...(...;9<
002050 10 3b 00 00 3b 39 10 3b 00 00 3b 39 20 3b 00 00  >.;..;9.;..;9 ;..<
002060 34 39 20 34 00 00 37 39 20 37 00 00 3b 39 20 3b  >49 4..79 7..;9 ;<
002070 00 00 40 39 20 90 53 00 00 91 47 00 00 92 4f 00  >..@9 .S...G...O.<
002080 00 93 4c 00 00 95 40 00 00 90 4c 52 00 91 40 52  >..L...@...LR..@R<
002090 00 ff 05 06 72 65 73 74 2c 20 00 95 3b 39 20 90  >....rest, ..;9 .<
0020a0 4c 00 00 91 40 00 00 95 3b 00 00 90 4d 52 00 91  >L...@...;...MR..<
0020b0 41 52 00 ff 05 05 0a 41 6e 64 20 00 95 37 39 20  >AR.....And ..79 <
0020c0 90 4d 00 00 91 41 00 00 95 37 00 00 90 4f 52 00  >.M...A...7...OR.<
0020d0 91 43 52 00 ff 05 04 74 68 65 20 00 95 34 39 20  >.CR....the ..49 <
0020e0 90 4f 00 00 91 43 00 00 95 34 00 00 90 51 52 00  >.O...C...4...QR.<
0020f0 91 45 52 00 ff 05 06 77 6f 72 6c 64 20 00 95 2f  >.ER....world ../<
002100 39 20 90 51 00 00 91 45 00 00 95 2f 00 00 90 53  >9 .Q...E.../...S<
002110 52 00 91 47 52 00 ff 05 05 77 69 6c 6c 20 00 95  >R..GR....will ..<
002120 28 39 20 90 53 00 00 91 47 00 00 95 28 00 00 90  >(9 .S...G...(...<
002130 54 52 00 91 48 52 00 ff 05 03 62 65 20 00 92 51  >TR..HR....be ..Q<
002140 52 00 93 4d 52 00 95 30 39 00 96 29 39 20 95 30  >R..MR..09..)9 .0<
002150 00 00 96 29 00 00 95 3c 39 10 3c 00 00 3c 39 10  >...)...<9.<..<9.<
002160 3c 00 00 3c 39 20 90 54 00 00 91 48 00 00 92 51  ><..<9 .T...H...Q<
002170 00 00 93 4d 00 00 90 4d 52 00 91 41 52 00 ff 05  >...M...MR..AR...<
002180 03 62 65 74 00 92 48 52 00 93 45 52 20 95 3c 00  >.bet..HR..ER .<.<
002190 00 3c 39 20 3c 00 00 3c 39 20 3c 00 00 29 39 20  >.<9 <..<9 <..)9 <
0021a0 29 00 00 30 39 20 30 00 00 39 39 20 90 4d 00 00  >)..09 0..99 .M..<
0021b0 91 41 00 00 92 48 00 00 93 45 00 00 95 39 00 00  >.A...H...E...9..<
0021c0 2a 39 20 2a 00 00 33 39 20 33 00 00 90 54 52 00  >*9 *..39 3...TR.<
0021d0 91 48 52 00 ff 05 04 74 65 72 20 00 92 50 52 00  >.HR....ter ..PR.<
0021e0 93 4e 52 00 94 4b 52 00 95 3c 39 20 90 54 00 00  >.NR..KR..<9 .T..<
0021f0 91 48 00 00 92 50 00 00 93 4e 00 00 94 4b 00 00  >.H...P...N...K..<
002200 95 3c 00 00 90 58 52 00 91 4c 52 00 ff 05 04 66  >.<...XR..LR....f<
002210 6f 72 20 00 92 54 52 00 93 4f 52 00 95 37 39 00  >or ..TR..OR..79.<
002220 96 30 39 00 97 2b 39 20 95 37 00 00 96 30 00 00  >.09..+9 .7...0..<
002230 97 2b 00 00 95 37 39 10 37 00 00 37 39 10 37 00  >.+...79.7..79.7.<
002240 00 37 39 20 37 00 00 37 39 20 37 00 00 3c 39 20  >.79 7..79 7..<9 <
002250 3c 00 00 40 39 20 40 00 00 3c 39 00 96 39 39 00  ><..@9 @..<9..99.<
002260 97 35 39 00 98 32 39 20 90 58 00 00 91 4c 00 00  >.59..29 .X...L..<
002270 92 54 00 00 93 4f 00 00 90 54 52 00 91 48 52 00  >.T...O...TR..HR.<
002280 ff 05 06 74 68 69 73 2c 20 20 90 54 00 00 91 48  >...this,  .T...H<
002290 00 00 90 56 52 00 91 4a 52 00 ff 05 06 0a 54 68  >...VR..JR.....Th<
0022a0 61 74 20 20 95 3c 00 00 96 39 00 00 97 35 00 00  >at  .<...9...5..<
0022b0 98 32 00 00 90 56 00 00 91 4a 00 00 90 58 52 00  >.2...V...J...XR.<
0022c0 91 4d 52 00 ff 05 04 6f 6e 65 20 00 92 54 52 00  >.MR....one ..TR.<
0022d0 93 51 52 00 95 2d 39 00 96 1f 39 20 90 58 00 00  >.QR..-9...9 .X..<
0022e0 91 4d 00 00 92 54 00 00 93 51 00 00 90 56 52 00  >.M...T...Q...VR.<
0022f0 91 4a 52 00 ff 05 05 6d 61 6e 2c 20 20 90 56 00  >.JR....man,  .V.<
002300 00 91 4a 00 00 90 54 52 00 91 48 52 00 ff 05 08  >..J...TR..HR....<
002310 73 63 6f 72 6e 65 64 20 20 95 2d 00 00 96 1f 00  >scorned  .-.....<
002320 00 90 54 00 00 91 48 00 00 90 5b 52 00 91 4f 52  >..T...H...[R..OR<
002330 00 ff 05 04 61 6e 64 20 00 92 58 52 00 93 54 52  >....and ..XR..TR<
002340 00 94 24 52 00 98 18 39 20 90 5b 00 00 91 4f 00  >..$R...9 .[...O.<
002350 00 92 58 00 00 93 54 00 00 90 56 52 00 91 4a 52  >..X...T...VR..JR<
002360 00 ff 05 03 63 6f 76 00 92 4f 52 00 93 4c 52 00  >....cov..OR..LR.<
002370 95 37 39 00 96 34 39 00 97 2b 39 10 90 56 00 00  >.79..49..+9..V..<
002380 91 4a 00 00 92 4f 00 00 93 4c 00 00 95 37 00 00  >.J...O...L...7..<
002390 96 34 00 00 97 2b 00 00 90 56 52 00 91 4a 52 00  >.4...+...VR..JR.<
0023a0 ff 05 05 65 72 65 64 20 00 92 4f 52 00 93 4c 52  >...ered ..OR..LR<
0023b0 00 95 37 39 00 96 34 39 00 97 2b 39 10 90 56 00  >..79..49..+9..V.<
0023c0 00 91 4a 00 00 92 4f 00 00 93 4c 00 00 95 37 00  >..J...O...L...7.<
0023d0 00 96 34 00 00 97 2b 00 00 90 56 52 00 91 4a 52  >..4...+...VR..JR<
0023e0 00 ff 05 05 77 69 74 68 20 00 92 4f 52 00 93 4c  >....with ..OR..L<
0023f0 52 00 95 37 39 00 96 34 39 00 97 2b 39 20 90 56  >R..79..49..+9 .V<
002400 00 00 91 4a 00 00 92 4f 00 00 93 4c 00 00 95 37  >...J...O...L...7<
002410 00 00 96 34 00 00 97 2b 00 00 90 54 52 00 91 48  >...4...+...TR..H<
002420 52 00 ff 05 07 73 63 61 72 73 2c 20 00 92 4f 52  >R....scars, ..OR<
002430 00 93 4c 52 00 95 39 39 00 96 34 39 00 97 2d 39  >..LR..99..49..-9<
002440 20 90 54 00 00 91 48 00 00 92 4f 00 00 93 4c 00  > .T...H...O...L.<
002450 00 95 39 00 00 96 34 00 00 97 2d 00 00 90 54 52  >..9...4...-...TR<
002460 00 91 48 52 00 ff 05 07 0a 53 74 69 6c 6c 20 00  >..HR.....Still .<
002470 92 4f 52 00 93 4c 52 00 95 39 39 00 96 34 39 00  >.OR..LR..99..49.<
002480 97 2d 39 20 90 54 00 00 91 48 00 00 92 4f 00 00  >.-9 .T...H...O..<
002490 93 4c 00 00 95 39 00 00 96 34 00 00 97 2d 00 00  >.L...9...4...-..<
0024a0 90 54 52 00 91 48 52 00 ff 05 08 73 74 72 6f 76  >.TR..HR....strov<
0024b0 65 2c 20 00 92 4f 52 00 93 4c 52 00 95 39 39 00  >e, ..OR..LR..99.<
0024c0 96 34 39 00 97 2d 39 20 90 54 00 00 91 48 00 00  >.49..-9 .T...H..<
0024d0 92 4f 00 00 93 4c 00 00 95 39 00 00 96 34 00 00  >.O...L...9...4..<
0024e0 97 2d 00 00 90 53 52 00 91 47 52 00 ff 05 05 77  >.-...SR..GR....w<
0024f0 69 74 68 20 00 92 4f 52 00 93 4c 52 00 95 3b 39  >ith ..OR..LR..;9<
002500 00 96 37 39 00 97 2f 39 20 90 53 00 00 91 47 00  >..79../9 .S...G.<
002510 00 92 4f 00 00 93 4c 00 00 95 3b 00 00 96 37 00  >..O...L...;...7.<
002520 00 97 2f 00 00 90 53 52 00 91 47 52 00 ff 05 04  >../...SR..GR....<
002530 68 69 73 20 00 92 4f 52 00 93 4c 52 00 95 3b 39  >his ..OR..LR..;9<
002540 00 96 37 39 00 97 2f 39 20 90 53 00 00 91 47 00  >..79../9 .S...G.<
002550 00 92 4f 00 00 93 4c 00 00 95 3b 00 00 96 37 00  >..O...L...;...7.<
002560 00 97 2f 00 00 90 53 52 00 91 47 52 00 ff 05 05  >../...SR..GR....<
002570 6c 61 73 74 20 00 92 4f 52 00 93 4c 52 00 95 3b  >last ..OR..LR..;<
002580 39 00 96 37 39 00 97 2f 39 20 90 53 00 00 91 47  >9..79../9 .S...G<
002590 00 00 92 4f 00 00 93 4c 00 00 95 3b 00 00 96 37  >...O...L...;...7<
0025a0 00 00 97 2f 00 00 90 51 52 00 91 45 52 00 ff 05  >.../...QR..ER...<
0025b0 06 6f 75 6e 63 65 20 00 92 4c 52 00 93 48 52 00  >.ounce ..LR..HR.<
0025c0 95 3c 39 00 96 37 39 00 97 30 39 20 90 51 00 00  >.<9..79..09 .Q..<
0025d0 91 45 00 00 92 4c 00 00 93 48 00 00 95 3c 00 00  >.E...L...H...<..<
0025e0 96 37 00 00 97 30 00 00 90 51 52 00 91 45 52 00  >.7...0...QR..ER.<
0025f0 ff 05 03 6f 66 20 00 92 4c 52 00 93 48 52 00 95  >...of ..LR..HR..<
002600 3c 39 00 96 37 39 00 97 30 39 20 90 51 00 00 91  ><9..79..09 .Q...<
002610 45 00 00 92 4c 00 00 93 48 00 00 95 3c 00 00 96  >E...L...H...<...<
002620 37 00 00 97 30 00 00 90 51 52 00 91 45 52 00 ff  >7...0...QR..ER..<
002630 05 04 63 6f 75 72 00 92 4c 52 00 93 48 52 00 95  >..cour..LR..HR..<
002640 3c 39 00 96 37 39 00 97 30 39 20 94 24 00 00 98  ><9..79..09 .$...<
002650 18 00 00 90 51 00 00 91 45 00 00 92 4c 00 00 93  >....Q...E...L...<
002660 48 00 00 95 3c 00 00 96 37 00 00 97 30 00 00 90  >H...<...7...0...<
002670 4f 52 00 91 43 52 00 ff 05 05 61 67 65 2c 20 00  >OR..CR....age, .<
002680 92 48 52 00 93 45 52 00 94 24 52 00 98 18 39 20  >.HR..ER..$R...9 <
002690 90 4f 00 00 91 43 00 00 92 48 00 00 93 45 00 00  >.O...C...H...E..<
0026a0 90 4f 52 00 91 43 52 00 ff 05 04 0a 54 6f 20 00  >.OR..CR.....To .<
0026b0 92 48 52 00 93 45 52 00 95 3c 39 00 96 39 39 00  >.HR..ER..<9..99.<
0026c0 97 30 39 10 90 4f 00 00 91 43 00 00 92 48 00 00  >.09..O...C...H..<
0026d0 93 45 00 00 95 3c 00 00 96 39 00 00 97 30 00 00  >.E...<...9...0..<
0026e0 90 4f 52 00 91 43 52 00 ff 05 06 72 65 61 63 68  >.OR..CR....reach<
0026f0 20 00 92 48 52 00 93 45 52 00 95 3c 39 00 96 39  > ..HR..ER..<9..9<
002700 39 00 97 30 39 10 90 4f 00 00 91 43 00 00 92 48  >9..09..O...C...H<
002710 00 00 93 45 00 00 95 3c 00 00 96 39 00 00 97 30  >...E...<...9...0<
002720 00 00 90 4f 52 00 91 43 52 00 ff 05 04 74 68 65  >...OR..CR....the<
002730 20 00 92 48 52 00 93 45 52 00 95 3c 39 00 96 39  > ..HR..ER..<9..9<
002740 39 00 97 30 39 20 90 4f 00 00 91 43 00 00 92 48  >9..09 .O...C...H<
002750 00 00 93 45 00 00 95 3c 00 00 96 39 00 00 97 30  >...E...<...9...0<
002760 00 00 90 4d 52 00 91 41 52 00 ff 05 02 75 6e 00  >...MR..AR....un.<
002770 92 48 52 00 93 45 52 00 95 3e 39 00 96 39 39 00  >.HR..ER..>9..99.<
002780 97 32 39 20 90 4d 00 00 91 41 00 00 92 48 00 00  >.29 .M...A...H..<
002790 93 45 00 00 95 3e 00 00 96 39 00 00 97 32 00 00  >.E...>...9...2..<
0027a0 90 4d 52 00 91 41 52 00 ff 05 05 72 65 61 63 68  >.MR..AR....reach<
0027b0 00 92 48 52 00 93 45 52 00 95 3e 39 00 96 39 39  >..HR..ER..>9..99<
0027c0 00 97 32 39 20 90 4d 00 00 91 41 00 00 92 48 00  >..29 .M...A...H.<
0027d0 00 93 45 00 00 95 3e 00 00 96 39 00 00 97 32 00  >..E...>...9...2.<
0027e0 00 90 4d 52 00 91 41 52 00 ff 05 01 61 00 92 48  >..MR..AR....a..H<
0027f0 52 00 93 45 52 00 95 3e 39 00 96 39 39 00 97 32  >R..ER..>9..99..2<
002800 39 20 90 4d 00 00 91 41 00 00 92 48 00 00 93 45  >9 .M...A...H...E<
002810 00 00 95 3e 00 00 96 39 00 00 97 32 00 00 90 4c  >...>...9...2...L<
002820 52 00 91 40 52 00 ff 05 04 62 6c 65 20 00 92 48  >R..@R....ble ..H<
002830 52 00 93 45 52 00 95 3c 39 00 96 39 39 00 97 34  >R..ER..<9..99..4<
002840 39 23 90 4c 00 00 91 40 00 00 92 48 00 00 93 45  >9#.L...@...H...E<
002850 00 00 95 3c 00 00 96 39 00 00 97 34 00 00 90 4c  >...<...9...4...L<
002860 52 00 91 40 52 00 ff 05 07 73 74 61 72 73 21 20  >R..@R....stars! <
002870 00 92 48 52 00 93 45 52 00 95 3c 39 00 96 39 39  >..HR..ER..<9..99<
002880 00 97 34 39 23 90 4c 00 00 91 40 00 00 92 48 00  >..49#.L...@...H.<
002890 00 93 45 00 00 95 3c 00 00 96 39 00 00 97 34 00  >..E...<...9...4.<
0028a0 00 90 4c 52 00 91 40 52 00 92 48 52 00 93 45 52  >..LR..@R..HR..ER<
0028b0 00 95 3c 39 00 96 39 39 00 97 34 39 23 90 4c 00  >..<9..99..49#.L.<
0028c0 00 91 40 00 00 92 48 00 00 93 45 00 00 95 3c 00  >..@...H...E...<.<
0028d0 00 96 39 00 00 97 34 00 00 90 4a 52 00 91 3e 52  >..9...4...JR..>R<
0028e0 00 92 45 52 00 93 41 52 00 95 39 39 00 96 35 39  >..ER..AR..99..59<
0028f0 00 97 32 39 23 90 4a 00 00 91 3e 00 00 92 45 00  >..29#.J...>...E.<
002900 00 93 41 00 00 95 39 00 00 96 35 00 00 97 32 00  >..A...9...5...2.<
002910 00 90 4a 52 00 91 3e 52 00 92 45 52 00 93 41 52  >..JR..>R..ER..AR<
002920 00 95 39 39 00 96 35 39 00 97 32 39 23 90 4a 00  >..99..59..29#.J.<
002930 00 91 3e 00 00 92 45 00 00 93 41 00 00 95 39 00  >..>...E...A...9.<
002940 00 96 35 00 00 97 32 00 00 90 4a 52 00 91 3e 52  >..5...2...JR..>R<
002950 00 92 45 52 00 93 41 52 00 95 39 39 00 96 35 39  >..ER..AR..99..59<
002960 00 97 32 39 23 94 24 00 00 98 18 00 00 90 4a 00  >..29#.$.......J.<
002970 00 91 3e 00 00 92 45 00 00 93 41 00 00 95 39 00  >..>...E...A...9.<
002980 00 96 35 00 00 97 32 00 00 90 48 52 00 91 3c 52  >..5...2...HR..<R<
002990 00 92 41 52 00 93 3e 52 00 94 29 52 00 98 22 39  >..AR..>R..)R.."9<
0029a0 26 90 48 00 00 91 3c 00 00 92 41 00 00 93 3e 00  >&.H...<...A...>.<
0029b0 00 90 48 52 00 91 3c 52 00 92 41 52 00 93 3e 52  >..HR..<R..AR..>R<
0029c0 00 95 35 39 13 90 48 00 00 91 3c 00 00 92 41 00  >..59..H...<...A.<
0029d0 00 93 3e 00 00 95 35 00 00 90 48 52 00 91 3c 52  >..>...5...HR..<R<
0029e0 00 92 41 52 00 93 3e 52 00 95 35 39 13 90 48 00  >..AR..>R..59..H.<
0029f0 00 91 3c 00 00 92 41 00 00 93 3e 00 00 95 35 00  >..<...A...>...5.<
002a00 00 90 48 52 00 91 3c 52 00 92 41 52 00 93 3e 52  >..HR..<R..AR..>R<
002a10 00 95 35 39 27 90 48 00 00 91 3c 00 00 92 41 00  >..59'.H...<...A.<
002a20 00 93 3e 00 00 95 35 00 00 90 46 52 00 91 3a 52  >..>...5...FR..:R<
002a30 00 93 3e 52 00 95 37 39 26 90 46 00 00 91 3a 00  >..>R..79&.F...:.<
002a40 00 93 3e 00 00 95 37 00 00 90 46 52 00 91 3a 52  >..>...7...FR..:R<
002a50 00 93 3e 52 00 95 37 39 26 90 46 00 00 91 3a 00  >..>R..79&.F...:.<
002a60 00 93 3e 00 00 95 37 00 00 90 46 52 00 91 3a 52  >..>...7...FR..:R<
002a70 00 93 3e 52 00 95 37 39 27 90 46 00 00 91 3a 00  >..>R..79'.F...:.<
002a80 00 93 3e 00 00 95 37 00 00 90 45 52 00 91 39 52  >..>...7...ER..9R<
002a90 00 92 41 52 00 93 3e 52 00 95 35 39 00 96 32 39  >..AR..>R..59..29<
002aa0 00 97 2d 39 26 90 45 00 00 91 39 00 00 92 41 00  >..-9&.E...9...A.<
002ab0 00 93 3e 00 00 95 35 00 00 96 32 00 00 97 2d 00  >..>...5...2...-.<
002ac0 00 90 45 52 00 91 39 52 00 92 41 52 00 93 3e 52  >..ER..9R..AR..>R<
002ad0 00 97 2d 39 27 90 45 00 00 91 39 00 00 92 41 00  >..-9'.E...9...A.<
002ae0 00 93 3e 00 00 97 2d 00 00 90 45 52 00 91 39 52  >..>...-...ER..9R<
002af0 00 92 41 52 00 93 3e 52 00 97 2d 39 26 90 45 00  >..AR..>R..-9&.E.<
002b00 00 91 39 00 00 92 41 00 00 93 3e 00 00 97 2d 00  >..9...A...>...-.<
002b10 00 90 43 52 00 91 37 52 00 92 3e 52 00 93 3a 52  >..CR..7R..>R..:R<
002b20 00 95 32 39 00 97 2b 39 26 90 43 00 00 91 37 00  >..29..+9&.C...7.<
002b30 00 92 3e 00 00 93 3a 00 00 95 32 00 00 97 2b 00  >..>...:...2...+.<
002b40 00 90 43 52 00 91 37 52 00 97 2b 39 27 90 43 00  >..CR..7R..+9'.C.<
002b50 00 91 37 00 00 97 2b 00 00 90 41 52 00 91 35 52  >..7...+...AR..5R<
002b60 00 97 29 39 30 94 29 00 00 98 22 00 00 90 41 00  >..)90.)..."...A.<
002b70 00 91 35 00 00 97 29 00 00 90 4c 52 00 91 43 52  >..5...)...LR..CR<
002b80 00 92 48 52 00 95 30 39 00 96 24 39 05 95 30 00  >..HR..09..$9..0.<
002b90 00 94 40 52 00 95 30 39 05 90 4c 00 00 96 24 00  >..@R..09..L...$.<
002ba0 00 90 4c 52 00 96 24 39 05 94 40 00 00 95 30 00  >..LR..$9..@...0.<
002bb0 00 94 40 52 00 95 30 39 05 90 4c 00 00 96 24 00  >..@R..09..L...$.<
002bc0 00 90 4c 52 00 96 24 39 05 94 40 00 00 95 30 00  >..LR..$9..@...0.<
002bd0 00 94 40 52 00 95 30 39 05 90 4c 00 00 96 24 00  >..@R..09..L...$.<
002be0 00 90 4c 52 00 96 24 39 05 94 40 00 00 95 30 00  >..LR..$9..@...0.<
002bf0 00 94 40 52 00 95 30 39 05 90 4c 00 00 96 24 00  >..@R..09..L...$.<
002c00 00 90 4c 52 00 96 24 39 05 94 40 00 00 95 30 00  >..LR..$9..@...0.<
002c10 00 94 40 52 00 95 30 39 05 90 4c 00 00 96 24 00  >..@R..09..L...$.<
002c20 00 90 4c 52 00 96 24 39 05 94 40 00 00 95 30 00  >..LR..$9..@...0.<
002c30 00 94 40 52 00 95 30 39 06 90 4c 00 00 96 24 00  >..@R..09..L...$.<
002c40 00 90 4c 52 00 96 24 39 05 94 40 00 00 95 30 00  >..LR..$9..@...0.<
002c50 00 94 40 52 00 95 30 39 05 90 4c 00 00 96 24 00  >..@R..09..L...$.<
002c60 00 90 4c 52 00 96 24 39 05 94 40 00 00 95 30 00  >..LR..$9..@...0.<
002c70 00 94 40 52 00 95 30 39 05 90 4c 00 00 96 24 00  >..@R..09..L...$.<
002c80 00 90 4c 52 00 96 24 39 05 94 40 00 00 95 30 00  >..LR..$9..@...0.<
002c90 00 94 40 52 00 95 30 39 05 90 4c 00 00 96 24 00  >..@R..09..L...$.<
002ca0 00 90 4c 52 00 96 24 39 05 94 40 00 00 95 30 00  >..LR..$9..@...0.<
002cb0 00 94 40 52 00 95 30 39 05 90 4c 00 00 96 24 00  >..@R..09..L...$.<
002cc0 00 90 4c 52 00 96 24 39 05 94 40 00 00 95 30 00  >..LR..$9..@...0.<
002cd0 00 94 40 52 00 95 30 39 05 90 4c 00 00 96 24 00  >..@R..09..L...$.<
002ce0 00 90 4c 52 00 96 24 39 05 94 40 00 00 95 30 00  >..LR..$9..@...0.<
002cf0 00 94 40 52 00 95 30 39 05 90 4c 00 00 96 24 00  >..@R..09..L...$.<
002d00 00 90 4c 52 00 96 24 39 05 94 40 00 00 95 30 00  >..LR..$9..@...0.<
002d10 00 94 40 52 00 95 30 39 05 90 4c 00 00 96 24 00  >..@R..09..L...$.<
002d20 00 90 4c 52 00 96 24 39 05 94 40 00 00 95 30 00  >..LR..$9..@...0.<
002d30 00 94 40 52 00 95 30 39 05 90 4c 00 00 96 24 00  >..@R..09..L...$.<
002d40 00 90 4c 52 00 96 24 39 05 94 40 00 00 95 30 00  >..LR..$9..@...0.<
002d50 00 94 40 52 00 95 30 39 05 90 4c 00 00 96 24 00  >..@R..09..L...$.<
002d60 00 90 4c 52 00 96 24 39 06 94 40 00 00 95 30 00  >..LR..$9..@...0.<
002d70 00 94 40 52 00 95 30 39 05 90 4c 00 00 96 24 00  >..@R..09..L...$.<
002d80 00 90 4c 52 00 96 24 39 05 94 40 00 00 95 30 00  >..LR..$9..@...0.<
002d90 00 94 40 52 00 95 30 39 05 90 4c 00 00 96 24 00  >..@R..09..L...$.<
002da0 00 90 4c 52 00 96 24 39 05 94 40 00 00 95 30 00  >..LR..$9..@...0.<
002db0 00 94 40 52 00 95 30 39 05 90 4c 00 00 96 24 00  >..@R..09..L...$.<
002dc0 00 95 30 00 00 90 4c 52 00 95 2d 45 00 96 24 39  >..0...LR..-E..$9<
002dd0 05 94 40 00 00 40 52 05 90 4c 00 00 96 24 00 00  >..@..@R..L...$..<
002de0 90 4c 52 00 96 24 39 05 94 40 00 00 40 52 05 90  >.LR..$9..@..@R..<
002df0 4c 00 00 96 24 00 00 90 4c 52 00 96 24 39 05 94  >L...$...LR..$9..<
002e00 40 00 00 40 52 05 90 4c 00 00 96 24 00 00 90 4c  >@..@R..L...$...L<
002e10 52 00 96 24 39 05 94 40 00 00 40 52 05 90 4c 00  >R..$9..@..@R..L.<
002e20 00 96 24 00 00 90 4c 52 00 96 24 39 05 94 40 00  >..$...LR..$9..@.<
002e30 00 40 52 05 90 4c 00 00 96 24 00 00 90 4c 52 00  >.@R..L...$...LR.<
002e40 96 24 39 05 94 40 00 00 40 52 05 90 4c 00 00 96  >.$9..@..@R..L...<
002e50 24 00 00 90 4c 52 05 94 40 00 00 40 52 06 90 4c  >$...LR..@..@R..L<
002e60 00 00 4c 52 05 94 40 00 00 40 52 05 90 4c 00 00  >..LR..@..@R..L..<
002e70 4c 52 05 94 40 00 00 40 52 05 95 2d 00 00 90 4c  >LR..@..@R..-...L<
002e80 00 00 4c 52 00 95 2b 45 05 94 40 00 00 40 52 05  >..LR..+E..@..@R.<
002e90 90 4c 00 00 4c 52 05 94 40 00 00 40 52 05 90 4c  >.L..LR..@..@R..L<
002ea0 00 00 4c 52 05 94 40 00 00 40 52 05 95 2b 00 00  >..LR..@..@R..+..<
002eb0 90 4c 00 00 4c 52 00 95 28 45 05 94 40 00 00 40  >.L..LR..(E..@..@<
002ec0 52 05 90 4c 00 00 4c 52 05 94 40 00 00 40 52 05  >R..L..LR..@..@R.<
002ed0 90 4c 00 00 4c 52 05 94 40 00 00 40 52 05 95 28  >.L..LR..@..@R..(<
002ee0 00 00 90 4c 00 00 4c 52 00 95 26 45 05 94 40 00  >...L..LR..&E..@.<
002ef0 00 40 52 05 90 4c 00 00 4c 52 06 94 40 00 00 40  >.@R..L..LR..@..@<
002f00 52 05 90 4c 00 00 4c 52 05 94 40 00 00 40 52 05  >R..L..LR..@..@R.<
002f10 91 43 00 00 92 48 00 00 95 26 00 00 90 4c 00 00  >.C...H...&...L..<
002f20 94 40 00 00 90 58 52 00 91 54 52 00 92 4f 52 00  >.@...XR..TR..OR.<
002f30 94 4c 52 00 95 18 39 00 96 24 39 05 94 4c 00 00  >.LR...9..$9..L..<
002f40 96 24 00 00 94 4c 52 00 96 24 39 05 90 58 00 00  >.$...LR..$9..X..<
002f50 95 18 00 00 90 58 52 00 95 18 39 05 94 4c 00 00  >.....XR...9..L..<
002f60 96 24 00 00 94 4c 52 00 96 24 39 05 90 58 00 00  >.$...LR..$9..X..<
002f70 95 18 00 00 90 58 52 00 95 18 39 05 94 4c 00 00  >.....XR...9..L..<
002f80 96 24 00 00 94 4c 52 00 96 24 39 05 90 58 00 00  >.$...LR..$9..X..<
002f90 95 18 00 00 90 58 52 00 95 18 39 05 94 4c 00 00  >.....XR...9..L..<
002fa0 96 24 00 00 94 4c 52 00 96 24 39 05 90 58 00 00  >.$...LR..$9..X..<
002fb0 95 18 00 00 90 58 52 00 95 18 39 05 94 4c 00 00  >.....XR...9..L..<
002fc0 96 24 00 00 94 4c 52 00 96 24 39 05 90 58 00 00  >.$...LR..$9..X..<
002fd0 95 18 00 00 90 58 52 00 95 18 39 05 94 4c 00 00  >.....XR...9..L..<
002fe0 96 24 00 00 94 4c 52 00 96 24 39 05 90 58 00 00  >.$...LR..$9..X..<
002ff0 95 18 00 00 90 58 52 00 95 18 39 05 94 4c 00 00  >.....XR...9..L..<
003000 96 24 00 00 94 4c 52 00 96 24 39 05 90 58 00 00  >.$...LR..$9..X..<
003010 95 18 00 00 90 58 52 00 95 18 39 05 94 4c 00 00  >.....XR...9..L..<
003020 96 24 00 00 94 4c 52 00 96 24 39 06 90 58 00 00  >.$...LR..$9..X..<
003030 95 18 00 00 90 58 52 00 95 18 39 05 94 4c 00 00  >.....XR...9..L..<
003040 96 24 00 00 94 4c 52 00 96 24 39 05 90 58 00 00  >.$...LR..$9..X..<
003050 95 18 00 00 90 58 52 00 95 18 39 05 94 4c 00 00  >.....XR...9..L..<
003060 96 24 00 00 94 4c 52 00 96 24 39 05 90 58 00 00  >.$...LR..$9..X..<
003070 95 18 00 00 90 58 52 00 95 18 39 05 94 4c 00 00  >.....XR...9..L..<
003080 96 24 00 00 94 4c 52 00 96 24 39 05 90 58 00 00  >.$...LR..$9..X..<
003090 95 18 00 00 90 58 52 00 95 18 39 05 94 4c 00 00  >.....XR...9..L..<
0030a0 96 24 00 00 94 4c 52 00 96 24 39 05 90 58 00 00  >.$...LR..$9..X..<
0030b0 95 18 00 00 90 58 52 00 95 18 39 05 94 4c 00 00  >.....XR...9..L..<
0030c0 96 24 00 00 94 4c 52 00 96 24 39 05 90 58 00 00  >.$...LR..$9..X..<
0030d0 95 18 00 00 90 58 52 00 95 18 39 05 94 4c 00 00  >.....XR...9..L..<
0030e0 96 24 00 00 94 4c 52 00 96 24 39 05 90 58 00 00  >.$...LR..$9..X..<
0030f0 95 18 00 00 90 58 52 00 95 18 39 05 94 4c 00 00  >.....XR...9..L..<
003100 96 24 00 00 94 4c 52 00 96 24 39 05 90 58 00 00  >.$...LR..$9..X..<
003110 95 18 00 00 90 58 52 00 95 18 39 05 94 4c 00 00  >.....XR...9..L..<
003120 96 24 00 00 94 4c 52 00 96 24 39 05 90 58 00 00  >.$...LR..$9..X..<
003130 95 18 00 00 90 58 52 00 95 18 39 05 94 4c 00 00  >.....XR...9..L..<
003140 96 24 00 00 94 4c 52 00 96 24 39 05 90 58 00 00  >.$...LR..$9..X..<
003150 95 18 00 00 90 58 52 00 95 18 39 06 94 4c 00 00  >.....XR...9..L..<
003160 96 24 00 00 94 4c 52 00 96 24 39 05 90 58 00 00  >.$...LR..$9..X..<
003170 95 18 00 00 90 58 52 00 95 18 39 05 94 4c 00 00  >.....XR...9..L..<
003180 96 24 00 00 94 4c 52 00 96 24 39 05 90 58 00 00  >.$...LR..$9..X..<
003190 95 18 00 00 90 58 52 00 95 18 39 05 94 4c 00 00  >.....XR...9..L..<
0031a0 96 24 00 00 94 4c 52 00 96 24 39 05 90 58 00 00  >.$...LR..$9..X..<
0031b0 95 18 00 00 90 58 52 00 95 18 39 05 94 4c 00 00  >.....XR...9..L..<
0031c0 96 24 00 00 94 4c 52 00 96 24 39 05 90 58 00 00  >.$...LR..$9..X..<
0031d0 95 18 00 00 90 58 52 00 95 18 39 05 94 4c 00 00  >.....XR...9..L..<
0031e0 96 24 00 00 94 4c 52 00 96 24 39 05 90 58 00 00  >.$...LR..$9..X..<
0031f0 95 18 00 00 90 58 52 00 95 18 39 05 94 4c 00 00  >.....XR...9..L..<
003200 96 24 00 00 94 4c 52 00 96 24 39 05 90 58 00 00  >.$...LR..$9..X..<
003210 95 18 00 00 90 58 52 00 95 18 39 05 94 4c 00 00  >.....XR...9..L..<
003220 96 24 00 00 94 4c 52 00 96 24 39 05 90 58 00 00  >.$...LR..$9..X..<
003230 95 18 00 00 90 58 52 00 95 18 39 05 94 4c 00 00  >.....XR...9..L..<
003240 96 24 00 00 94 4c 52 00 96 24 39 05 90 58 00 00  >.$...LR..$9..X..<
003250 95 18 00 00 90 58 52 00 95 18 39 05 94 4c 00 00  >.....XR...9..L..<
003260 96 24 00 00 94 4c 52 00 96 24 39 05 90 58 00 00  >.$...LR..$9..X..<
003270 95 18 00 00 90 58 52 00 95 18 39 05 94 4c 00 00  >.....XR...9..L..<
003280 96 24 00 00 94 4c 52 00 96 24 39 06 90 58 00 00  >.$...LR..$9..X..<
003290 95 18 00 00 90 58 52 00 95 18 39 05 94 4c 00 00  >.....XR...9..L..<
0032a0 96 24 00 00 94 4c 52 00 96 24 39 05 90 58 00 00  >.$...LR..$9..X..<
0032b0 95 18 00 00 90 58 52 00 95 18 39 05 94 4c 00 00  >.....XR...9..L..<
0032c0 96 24 00 00 94 4c 52 00 96 24 39 05 90 58 00 00  >.$...LR..$9..X..<
0032d0 95 18 00 00 90 58 52 00 95 18 39 05 94 4c 00 00  >.....XR...9..L..<
0032e0 96 24 00 00 94 4c 52 00 96 24 39 05 90 58 00 00  >.$...LR..$9..X..<
0032f0 95 18 00 00 90 58 52 00 95 18 39 05 94 4c 00 00  >.....XR...9..L..<
003300 96 24 00 00 94 4c 52 00 96 24 39 05 90 58 00 00  >.$...LR..$9..X..<
003310 95 18 00 00 90 58 52 00 95 18 39 05 94 4c 00 00  >.....XR...9..L..<
003320 96 24 00 00 94 4c 52 00 96 24 39 05 90 58 00 00  >.$...LR..$9..X..<
003330 95 18 00 00 90 58 52 00 95 18 39 05 94 4c 00 00  >.....XR...9..L..<
003340 96 24 00 00 94 4c 52 00 96 24 39 05 90 58 00 00  >.$...LR..$9..X..<
003350 58 52 1e 91 54 00 00 92 4f 00 00 95 18 00 00 94  >XR..T...O.......<
003360 4c 00 00 96 24 00 00 90 58 00 ff 2f 00           >L...$...X../.<
00336d
